<svg xmlns="http://www.w3.org/2000/svg" version="1.1" xmlns:xlink="http://www.w3.org/1999/xlink" xmlns:svgjs="http://svgjs.dev/svgjs" viewBox="0 0 9.7667799501124 6.190805037173909"><g transform="matrix(0.8231792570437254,0,0,0.8231792570437254,4.8833899750562,4.709248040192821)"><rect width="11.096578699052927" height="11.096578699052927" x="-5.548289349526463" y="-7.508792493643155" fill="transparent"></rect><g transform="matrix(1,0,0,1,0,0)"><path d=" M -1.2564668489784845 -4.057685642724708 Q -1.2107355792775638 -4.082437429964051 -1.1564408410357918 -4.077711818971021 Q -1.1021461027940196 -4.0729862079779915 -1.053245781624169 -4.041462271207888 Q -1.0043454604543185 -4.009938334437785 -0.9743577182220384 -3.9545331423001313 Q -0.9448459718982072 -3.9000073976567258 -0.945194710406271 -3.841827690013485 Q -0.945543448914335 -3.783647982370244 -0.9710404346949493 -3.7351670199612412 Q -0.9965374204755636 -3.686686057552238 -1.0422686901764842 -3.661934270312896 L -1.204087029118203 -3.5743510231583002 L -1.2038604805277984 -3.594941037139262 L -1.105329327478878 -3.4128954058298278 Q -1.092953433859207 -3.3900297709793676 -1.098694665369327 -3.367023505294837 Q -1.104435896879447 -3.3440172396103067 -1.1273015317299073 -3.3316413459906355 Q -1.149287719086119 -3.319741448279413 -1.1716888073919502 -3.327515844893579 Q -1.1940898956977812 -3.3352902415077454 -1.2064657893174524 -3.3581558763582056 L -1.4815914244009107 -3.8664765280338225 Q -1.4939673180205817 -3.8893421628842826 -1.486906915269089 -3.9130624224314863 Q -1.4798465125175964 -3.9367826819786904 -1.456980877667136 -3.9491585755983616 L -1.2564668489784845 -4.057685642724708 M -1.0965322237396575 -3.762191284657222 Q -1.0798227213489366 -3.7712352069177504 -1.0716086009876462 -3.7938742931778062 Q -1.063394480626356 -3.8165133794378616 -1.064979006360821 -3.8446512414425844 Q -1.0665635320952862 -3.872789103447307 -1.079891417531855 -3.8974136332862646 Q -1.093695298876873 -3.92291761061947 -1.1161485665190767 -3.9391918470742953 Q -1.1386018341612807 -3.9554660835291204 -1.161809825638711 -3.960529593337892 Q -1.1850178171161412 -3.965593103146663 -1.2017273195068623 -3.956549180886134 L -1.365304553437078 -3.8680139419146404 L -1.3633191098581763 -3.8895559477124997 L -1.2419401532037095 -3.6652968366791394 L -1.2592300101756249 -3.674132041594177 L -1.0965322237396575 -3.762191284657222 M -0.46097260738589135 -4.321913279032322 Q -0.36670048619153583 -4.340045216753282 -0.3120470810500996 -4.304732254452647 Q -0.2573936759086632 -4.269419292152013 -0.24077273299778362 -4.183003181057187 Q -0.23189563848856387 -4.136849121722451 -0.24777662805498174 -4.0976439668268085 Q -0.2636576176213996 -4.058438811931166 -0.3041646245816838 -4.030790441506863 Q -0.344671631541968 -4.003142071082559 -0.4094837148630874 -3.990676363899399 L -0.41405505562002237 -4.035621918114294 Q -0.3836130164843451 -4.041477023003353 -0.342727534000987 -4.0406849863230025 Q -0.301842051517629 -4.0398929496426526 -0.260956205623994 -4.025862710672416 Q -0.220070359730359 -4.0118324717021805 -0.18873966627703964 -3.978652844704064 Q -0.15740897282372035 -3.9454732177059477 -0.14607651174812064 -3.8865531419594754 Q -0.133610804564961 -3.821741058638356 -0.14679110895452707 -3.7764362070637354 Q -0.15997141334409315 -3.731131355489115 -0.1899973474505554 -3.7019347241588676 Q -0.22002328155701756 -3.67273809282862 -0.25769790006895577 -3.6568361080474703 Q -0.2953725185808939 -3.6409341232663204 -0.3317065652912184 -3.6339457722697004 L -0.5762248796390779 -3.5869160588059614 Q -0.6017569124625491 -3.582005325673202 -0.6222472357023201 -3.5958850466188728 Q -0.6427375589420911 -3.609764767564544 -0.647648292074851 -3.6352968003880153 L -0.7568176671031281 -4.202893530079031 Q -0.761728400235888 -4.228425562902502 -0.7478486792902168 -4.248915886142273 Q -0.7339689583445457 -4.269406209382044 -0.7084369255210744 -4.274316942514804 L -0.46097260738589135 -4.321913279032322 M -0.4563614566611536 -4.202637391741581 L -0.6311576813756876 -4.1690177572173015 L -0.6214136545841119 -4.187185143982741 L -0.5872273970060529 -4.009442915480883 L -0.6007112813166873 -4.016014434627734 L -0.42395105407727074 -4.050011817854533 Q -0.39547301746647584 -4.055489174041073 -0.3764756011042681 -4.078491308106435 Q -0.35747818474206033 -4.101493442171798 -0.3642776613874201 -4.136845487619682 Q -0.37239925849159994 -4.179071541904653 -0.3971953354836557 -4.1941597679701665 Q -0.4219914124757115 -4.20924799403568 -0.4563614566611536 -4.202637391741581 M -0.3967538743163853 -3.935080040642771 L -0.5754781040806842 -3.9007049087134518 L -0.5681510875287934 -3.9102607879743214 L -0.5282985994129343 -3.7030585215992273 L -0.5400073555499464 -3.7109897907110394 L -0.35342711568611784 -3.7468759174504385 Q -0.30825505761382255 -3.7555641376083986 -0.2863684451337799 -3.7847227760222277 Q -0.2644818326537373 -3.8138814144360573 -0.27373667586547706 -3.861999476295676 Q -0.2822360216721768 -3.9061895331055303 -0.3036895314213184 -3.9224298200316743 Q -0.32514304117046 -3.9386701069578187 -0.35063744448779 -3.9388582544885247 Q -0.37613184780512005 -3.9390464020192306 -0.3967538743163853 -3.935080040642771 M 0.1166166560405002 -3.7187132764250554 Q 0.1159206187115335 -3.6927225947865012 0.09845822482259728 -3.6756839680910294 Q 0.08099583093366111 -3.6586453413955575 0.055005149295106776 -3.659341378724524 Q 0.029014467656552453 -3.660037416053491 0.012489047095071468 -3.6779862454099193 Q -0.004036373466409546 -3.6959350747663477 -0.0033403361374428273 -3.721925756404902 L 0.007715949126528482 -4.1347777378173225 Q 0.008411986455495207 -4.160768419455877 0.025874380344431402 -4.177807046151349 Q 0.0433367742333676 -4.194845672846821 0.0693274558719219 -4.194149635517854 Q 0.09531813751047624 -4.193453598188887 0.11184355807195723 -4.175504768832459 Q 0.12836897863343824 -4.157555939476031 0.12767294130447152 -4.131565257837476 L 0.1166166560405002 -3.7187132764250554 M 0.07006790759285583 -4.259153110280739 Q 0.03608009314243865 -4.2600633129416945 0.022379588053164562 -4.2714341598889884 Q 0.008679082963890458 -4.2828050068362815 0.009428661625854609 -4.310794971677802 L 0.00993730428933029 -4.329788162105976 Q 0.010713653617793167 -4.358777768548979 0.026489190439014043 -4.368859060033818 Q 0.04226472726023489 -4.378940351518659 0.07425325850768638 -4.378083690190699 Q 0.10924071455958645 -4.377146716863244 0.12294121964886051 -4.365775869915951 Q 0.13664172473813463 -4.354405022968658 0.13589214607617048 -4.326415058127138 L 0.13538350341269478 -4.307421867698963 Q 0.13460715408423193 -4.27843226125596 0.11933143806375249 -4.268337584437871 Q 0.10405572204327304 -4.258242907619782 0.07006790759285583 -4.259153110280739 M 0.6423604813535337 -4.125037720976739 Q 0.7144252024414511 -4.108224750551479 0.7448750629644479 -4.069288186833939 Q 0.7753249234874446 -4.030351623116399 0.7777447948235785 -3.9769040392353987 Q 0.7801646661597125 -3.9234564553543985 0.7658509210679371 -3.862104057671442 L 0.707687131488659 -3.6127990766105382 Q 0.7017798716095136 -3.5874790394715403 0.6812484224076669 -3.574299145933579 Q 0.6607169732058205 -3.5611192523956174 0.6353969360668223 -3.567026512274763 Q 0.6100768989278244 -3.5729337721539083 0.5974975303325196 -3.5938385439953677 Q 0.584918161737215 -3.6147433158368267 0.5908254216163604 -3.6400633529758246 L 0.6489892111956385 -3.889368334036728 Q 0.6564868871960923 -3.9215053042516104 0.654230043777472 -3.9492434847576177 Q 0.6519732003588515 -3.9769816652636245 0.6341837903976351 -3.9975616772469005 Q 0.6163943804364185 -4.018141689230176 0.5764666295633831 -4.027456983654982 Q 0.5375127262726169 -4.036545075776744 0.5070966809115104 -4.02721157779415 Q 0.47668063555040374 -4.017878079811554 0.45653898457683356 -3.9953655522755605 Q 0.4363973336032634 -3.9728530247395666 0.42889965760280957 -3.9407160545246844 L 0.37073586802353153 -3.6914110734637813 Q 0.3648286081443861 -3.666091036324783 0.34429715894253954 -3.652911142786822 Q 0.32376570974069296 -3.6397312492488605 0.2984456726016949 -3.645638509128006 Q 0.2731256354626969 -3.6515457690071513 0.26054626686739224 -3.672450540848611 Q 0.24796689827208757 -3.69335531269007 0.253874158151233 -3.7186753498290677 L 0.3477087093084276 -4.120874401306229 Q 0.35361596918757304 -4.146194438445226 0.3741474183894196 -4.159374331983188 Q 0.39467886759126625 -4.172554225521149 0.41999890473026424 -4.166646965642004 Q 0.44531894186926224 -4.160739705762858 0.4578983104645669 -4.139834933921399 Q 0.4704776790598716 -4.11893016207994 0.46457041918072617 -4.093610124940942 L 0.4548007201498318 -4.051734678903369 L 0.44087461332492667 -4.058064256195837 Q 0.45350168071709795 -4.072574844367016 0.4744875345250327 -4.0877024330695155 Q 0.4954733883329674 -4.102830021772015 0.5217343218769068 -4.114159777700578 Q 0.5479952554208463 -4.12548953362914 0.5786224594886145 -4.129126066454688 Q 0.6092496635563824 -4.132762599280237 0.6423604813535337 -4.125037720976739 M 0.9625227718538766 -3.4098133464593463 Q 0.9127349401595592 -3.437565316032303 0.8811330374780935 -3.481512099155885 Q 0.8495311347966278 -3.5254588822794677 0.8433892384652822 -3.5781113001674907 Q 0.8416713695526754 -3.5996762932442135 0.849948272758645 -3.6145252956793605 Q 0.862120189238012 -3.636362063966342 0.887429771707827 -3.641716971547583 Q 0.9127393541776421 -3.647071879128824 0.9293352980757479 -3.637821222604505 Q 0.9424373590479367 -3.630518072716885 0.9507207947218137 -3.6155971245755385 Q 0.9590042303956907 -3.6006761764341926 0.9636433592633457 -3.5843520077463453 Q 0.9723489940277864 -3.558892001396225 0.9857300983478217 -3.5428468760562244 Q 0.999111202667857 -3.5268017507162237 1.0209479709548384 -3.5146298342368567 Q 1.047152092899216 -3.5000235344616164 1.0771654818052967 -3.5004668022952634 Q 1.1071788707113774 -3.5009100701289104 1.1333263188944125 -3.514956811869097 Q 1.1594737670774478 -3.529003553609283 1.1735931901935135 -3.5543342048221818 L 1.3780813870468795 -3.9211919120434677 Q 1.3907401801854213 -3.9439021510619283 1.415856465619084 -3.9499372323384963 Q 1.4409727510527468 -3.955972313615064 1.4628095193397281 -3.943800397135697 Q 1.4872666998211472 -3.9301678506788065 1.4935953607207375 -3.90660520967195 Q 1.499924021620328 -3.8830425686650933 1.4872652284817862 -3.8603323296466328 L 1.2827770316284202 -3.4934746224253463 Q 1.2530775554187645 -3.440192907805112 1.199808905734345 -3.410352482861781 Q 1.1465402560499256 -3.380512057918449 1.083792783456456 -3.378852334106546 Q 1.0210453108629867 -3.377192610294643 0.9625227718538766 -3.4098133464593463" fill="#390c14" fill-rule="nonzero"></path></g><g transform="matrix(1,0,0,1,0,0)"><path d=" M -4.0374906005859375 0.019999999999999962 Q -4.009990600585938 0.019999999999999962 -3.9879906005859374 0.033499999999999974 Q -3.9659906005859376 0.046999999999999986 -3.9532406005859375 0.07050000000000001 Q -3.9404906005859375 0.09399999999999997 -3.9404906005859375 0.124 Q -3.9404906005859375 0.1535 -3.9532406005859375 0.1775 Q -3.9659906005859376 0.20149999999999998 -3.9879906005859374 0.2155 Q -4.009990600585938 0.22949999999999998 -4.0374906005859375 0.22949999999999998 L -4.138990600585937 0.22949999999999998 L -4.135490600585937 0.2235 L -4.135490600585937 0.3495 Q -4.135490600585937 0.358 -4.140990600585938 0.364 Q -4.146490600585937 0.37 -4.154990600585937 0.37 Q -4.1639906005859375 0.37 -4.169240600585938 0.364 Q -4.174490600585938 0.358 -4.174490600585938 0.3495 L -4.174490600585938 0.03999999999999998 Q -4.174490600585938 0.03149999999999997 -4.168740600585937 0.025749999999999995 Q -4.162990600585937 0.019999999999999962 -4.154490600585937 0.019999999999999962 L -4.0374906005859375 0.019999999999999962 M -4.0374906005859375 0.191 Q -4.020990600585938 0.191 -4.0084906005859375 0.182 Q -3.9959906005859374 0.173 -3.9884906005859375 0.1575 Q -3.9809906005859377 0.142 -3.9809906005859377 0.124 Q -3.9809906005859377 0.10499999999999998 -3.9884906005859375 0.09049999999999997 Q -3.9959906005859374 0.07600000000000001 -4.0084906005859375 0.06724999999999998 Q -4.020990600585938 0.058499999999999996 -4.0374906005859375 0.058499999999999996 L -4.138990600585937 0.058499999999999996 L -4.135490600585937 0.05299999999999999 L -4.135490600585937 0.19599999999999998 L -4.138990600585937 0.191 L -4.0374906005859375 0.191 M -3.8619910888671876 0.37 Q -3.8704910888671873 0.37 -3.8762410888671877 0.364 Q -3.8819910888671876 0.358 -3.8819910888671876 0.3495 L -3.8819910888671876 0.13149999999999998 Q -3.8819910888671876 0.123 -3.8762410888671877 0.11724999999999997 Q -3.8704910888671873 0.11149999999999999 -3.8619910888671876 0.11149999999999999 Q -3.8529910888671877 0.11149999999999999 -3.8474910888671876 0.11724999999999997 Q -3.8419910888671875 0.123 -3.8419910888671875 0.13149999999999998 L -3.8419910888671875 0.19749999999999998 L -3.8479910888671873 0.187 Q -3.8449910888671877 0.17149999999999999 -3.8372410888671875 0.15675 Q -3.8294910888671874 0.142 -3.8174910888671874 0.13024999999999998 Q -3.8054910888671873 0.1185 -3.7899910888671875 0.11175000000000002 Q -3.7744910888671876 0.10499999999999998 -3.7559910888671877 0.10499999999999998 Q -3.7449910888671876 0.10499999999999998 -3.7357410888671874 0.11025000000000001 Q -3.7264910888671876 0.11549999999999999 -3.7264910888671876 0.125 Q -3.7264910888671876 0.13549999999999998 -3.7319910888671877 0.14049999999999999 Q -3.7374910888671877 0.1455 -3.7444910888671874 0.1455 Q -3.7509910888671874 0.1455 -3.7569910888671876 0.14275 Q -3.7629910888671874 0.13999999999999999 -3.7719910888671877 0.13999999999999999 Q -3.7844910888671874 0.13999999999999999 -3.7967410888671873 0.14675 Q -3.8089910888671876 0.1535 -3.8192410888671873 0.16599999999999998 Q -3.8294910888671874 0.1785 -3.8357410888671875 0.19424999999999998 Q -3.8419910888671875 0.21 -3.8419910888671875 0.22799999999999998 L -3.8419910888671875 0.3495 Q -3.8419910888671875 0.358 -3.8477410888671875 0.364 Q -3.8534910888671874 0.37 -3.8619910888671876 0.37 M -3.4494769287109373 0.24 Q -3.4494769287109373 0.279 -3.4664769287109376 0.3095 Q -3.4834769287109375 0.33999999999999997 -3.5127269287109373 0.3575 Q -3.5419769287109375 0.375 -3.5789769287109374 0.375 Q -3.6154769287109376 0.375 -3.6447269287109374 0.3575 Q -3.6739769287109376 0.33999999999999997 -3.6912269287109374 0.3095 Q -3.7084769287109376 0.279 -3.7084769287109376 0.24 Q -3.7084769287109376 0.20099999999999998 -3.6912269287109374 0.17049999999999998 Q -3.6739769287109376 0.13999999999999999 -3.6447269287109374 0.1225 Q -3.6154769287109376 0.10499999999999998 -3.5789769287109374 0.10499999999999998 Q -3.5419769287109375 0.10499999999999998 -3.5127269287109373 0.1225 Q -3.4834769287109375 0.13999999999999999 -3.4664769287109376 0.17049999999999998 Q -3.4494769287109373 0.20099999999999998 -3.4494769287109373 0.24 M -3.4894769287109373 0.24 Q -3.4894769287109373 0.211 -3.5012269287109374 0.189 Q -3.5129769287109376 0.16699999999999998 -3.5332269287109375 0.1545 Q -3.5534769287109373 0.142 -3.5789769287109374 0.142 Q -3.6039769287109373 0.142 -3.6244769287109375 0.1545 Q -3.6449769287109377 0.16699999999999998 -3.6567269287109374 0.189 Q -3.6684769287109376 0.211 -3.6684769287109376 0.24 Q -3.6684769287109376 0.26849999999999996 -3.6567269287109374 0.2905 Q -3.6449769287109377 0.3125 -3.6244769287109375 0.32525 Q -3.6039769287109373 0.33799999999999997 -3.5789769287109374 0.33799999999999997 Q -3.5534769287109373 0.33799999999999997 -3.5332269287109375 0.32525 Q -3.5129769287109376 0.3125 -3.5012269287109374 0.2905 Q -3.4894769287109373 0.26849999999999996 -3.4894769287109373 0.24 M -3.3974915771484375 0.10849999999999999 Q -3.3879915771484375 0.10849999999999999 -3.3814915771484375 0.11699999999999999 L -3.2074915771484376 0.33899999999999997 Q -3.2034915771484376 0.3445 -3.2034915771484376 0.351 Q -3.2034915771484376 0.3595 -3.2094915771484374 0.3655 Q -3.2154915771484376 0.3715 -3.2234915771484376 0.3715 Q -3.2329915771484377 0.3715 -3.2399915771484373 0.3625 L -3.4139915771484377 0.141 Q -3.4179915771484377 0.13549999999999998 -3.4179915771484377 0.129 Q -3.4179915771484377 0.12 -3.4117415771484376 0.11424999999999996 Q -3.4054915771484375 0.10849999999999999 -3.3974915771484375 0.10849999999999999 M -3.3974915771484375 0.371 Q -3.4039915771484375 0.371 -3.4104915771484374 0.366 Q -3.4169915771484374 0.361 -3.4169915771484374 0.353 Q -3.4169915771484374 0.3465 -3.4119915771484375 0.34049999999999997 L -3.3299915771484376 0.237 L -3.3089915771484373 0.27 L -3.3814915771484375 0.363 Q -3.3874915771484373 0.371 -3.3974915771484375 0.371 M -3.2234915771484376 0.10849999999999999 Q -3.2149915771484374 0.10849999999999999 -3.2097415771484377 0.11399999999999999 Q -3.2044915771484375 0.1195 -3.2044915771484375 0.1265 Q -3.2044915771484375 0.1295 -3.2057415771484377 0.13299999999999998 Q -3.2069915771484374 0.13649999999999998 -3.2094915771484374 0.13949999999999999 L -3.2909915771484375 0.244 L -3.3119915771484374 0.2135 L -3.2399915771484373 0.1175 Q -3.2329915771484377 0.10849999999999999 -3.2234915771484376 0.10849999999999999 M -2.9589989013671874 0.10749999999999998 Q -2.9504989013671876 0.10749999999999998 -2.9447489013671877 0.11325000000000002 Q -2.9389989013671873 0.119 -2.9389989013671873 0.1275 L -2.9389989013671873 0.3455 Q -2.9389989013671873 0.3875 -2.9554989013671875 0.41525 Q -2.9719989013671877 0.443 -2.9997489013671874 0.4565 Q -3.0274989013671876 0.47 -3.0624989013671877 0.47 Q -3.0819989013671876 0.47 -3.0999989013671874 0.46599999999999997 Q -3.1179989013671876 0.46199999999999997 -3.1294989013671874 0.4555 Q -3.1389989013671875 0.451 -3.1427489013671877 0.44425 Q -3.1464989013671874 0.4375 -3.1439989013671874 0.43 Q -3.1404989013671876 0.421 -3.1337489013671873 0.4175 Q -3.1269989013671875 0.414 -3.1194989013671877 0.4175 Q -3.1114989013671877 0.421 -3.0962489013671877 0.42725 Q -3.0809989013671877 0.4335 -3.0619989013671876 0.4335 Q -3.0359989013671873 0.4335 -3.0174989013671873 0.4235 Q -2.9989989013671874 0.4135 -2.9889989013671876 0.39425 Q -2.9789989013671874 0.375 -2.9789989013671874 0.3465 L -2.9789989013671874 0.311 L -2.9729989013671876 0.3235 Q -2.9809989013671876 0.33899999999999997 -2.9944989013671877 0.3505 Q -3.0079989013671877 0.362 -3.0254989013671874 0.3685 Q -3.0429989013671874 0.375 -3.0639989013671873 0.375 Q -3.0924989013671875 0.375 -3.1122489013671877 0.36275 Q -3.1319989013671874 0.3505 -3.1422489013671875 0.32875 Q -3.1524989013671876 0.307 -3.1524989013671876 0.27849999999999997 L -3.1524989013671876 0.1275 Q -3.1524989013671876 0.119 -3.1467489013671877 0.11325000000000002 Q -3.1409989013671873 0.10749999999999998 -3.1324989013671876 0.10749999999999998 Q -3.1234989013671877 0.10749999999999998 -3.1179989013671876 0.11325000000000002 Q -3.1124989013671875 0.119 -3.1124989013671875 0.1275 L -3.1124989013671875 0.26949999999999996 Q -3.1124989013671875 0.3035 -3.0974989013671874 0.32075 Q -3.0824989013671873 0.33799999999999997 -3.0509989013671874 0.33799999999999997 Q -3.0309989013671874 0.33799999999999997 -3.0147489013671875 0.329 Q -2.9984989013671877 0.32 -2.9887489013671873 0.30425 Q -2.9789989013671874 0.2885 -2.9789989013671874 0.26949999999999996 L -2.9789989013671874 0.1275 Q -2.9789989013671874 0.119 -2.9734989013671873 0.11325000000000002 Q -2.9679989013671877 0.10749999999999998 -2.9589989013671874 0.10749999999999998 M -2.5699805908203124 0.019999999999999962 Q -2.5259805908203123 0.019999999999999962 -2.5022305908203126 0.04275000000000001 Q -2.4784805908203125 0.0655 -2.4784805908203125 0.10699999999999998 Q -2.4784805908203125 0.129 -2.4884805908203127 0.1475 Q -2.4984805908203125 0.16599999999999998 -2.5177305908203125 0.177 Q -2.5369805908203125 0.188 -2.5649805908203125 0.189 L -2.5659805908203124 0.175 Q -2.5484805908203123 0.175 -2.5299805908203123 0.18 Q -2.5114805908203124 0.185 -2.4957305908203127 0.19599999999999998 Q -2.4799805908203125 0.207 -2.4702305908203126 0.225 Q -2.4604805908203127 0.243 -2.4604805908203127 0.26949999999999996 Q -2.4604805908203127 0.298 -2.4699805908203123 0.31725 Q -2.4794805908203124 0.3365 -2.4952305908203125 0.34825 Q -2.5109805908203127 0.36 -2.5302305908203127 0.365 Q -2.5494805908203126 0.37 -2.5689805908203125 0.37 L -2.7004805908203124 0.37 Q -2.7089805908203126 0.37 -2.7147305908203125 0.364 Q -2.7204805908203125 0.358 -2.7204805908203125 0.3495 L -2.7204805908203125 0.03999999999999998 Q -2.7204805908203125 0.03149999999999997 -2.7147305908203125 0.025749999999999995 Q -2.7089805908203126 0.019999999999999962 -2.7004805908203124 0.019999999999999962 L -2.5699805908203124 0.019999999999999962 M -2.5759805908203126 0.0595 L -2.6834805908203125 0.0595 L -2.6774805908203123 0.05049999999999999 L -2.6774805908203123 0.175 L -2.6829805908203124 0.16849999999999998 L -2.5749805908203127 0.16849999999999998 Q -2.5529805908203125 0.16849999999999998 -2.5372305908203123 0.15425 Q -2.5214805908203126 0.13999999999999999 -2.5214805908203126 0.11199999999999999 Q -2.5214805908203126 0.08699999999999997 -2.5359805908203126 0.07324999999999998 Q -2.5504805908203125 0.0595 -2.5759805908203126 0.0595 M -2.5719805908203126 0.2085 L -2.6809805908203126 0.2085 L -2.6774805908203123 0.205 L -2.6774805908203123 0.3355 L -2.6814805908203123 0.331 L -2.5704805908203125 0.331 Q -2.5409805908203125 0.331 -2.5222305908203126 0.316 Q -2.5034805908203124 0.301 -2.5034805908203124 0.26949999999999996 Q -2.5034805908203124 0.245 -2.5134805908203126 0.23174999999999998 Q -2.5234805908203124 0.2185 -2.5392305908203125 0.2135 Q -2.5549805908203127 0.2085 -2.5719805908203126 0.2085 M -2.1904730224609374 0.10899999999999999 Q -2.1814730224609375 0.10899999999999999 -2.1759730224609375 0.11474999999999996 Q -2.1704730224609374 0.1205 -2.1704730224609374 0.129 L -2.1704730224609374 0.3495 Q -2.1704730224609374 0.358 -2.1762230224609374 0.364 Q -2.1819730224609373 0.37 -2.1904730224609374 0.37 Q -2.1989730224609376 0.37 -2.2047230224609375 0.364 Q -2.2104730224609375 0.358 -2.2104730224609375 0.3495 L -2.2104730224609375 0.302 L -2.2009730224609374 0.301 Q -2.2009730224609374 0.312 -2.2084730224609377 0.325 Q -2.2159730224609375 0.33799999999999997 -2.2289730224609374 0.34925 Q -2.2419730224609373 0.3605 -2.2594730224609374 0.36775 Q -2.2769730224609375 0.375 -2.2974730224609377 0.375 Q -2.3314730224609375 0.375 -2.3587230224609375 0.35725 Q -2.3859730224609375 0.3395 -2.4014730224609373 0.309 Q -2.4169730224609376 0.27849999999999997 -2.4169730224609376 0.2395 Q -2.4169730224609376 0.19999999999999998 -2.4012230224609374 0.16974999999999998 Q -2.3854730224609373 0.13949999999999999 -2.3587230224609375 0.12225 Q -2.3319730224609376 0.10499999999999998 -2.2984730224609375 0.10499999999999998 Q -2.2769730224609375 0.10499999999999998 -2.2584730224609375 0.11199999999999999 Q -2.2399730224609375 0.119 -2.2262230224609376 0.13099999999999998 Q -2.2124730224609377 0.143 -2.2049730224609374 0.1575 Q -2.1974730224609376 0.172 -2.1974730224609376 0.1865 L -2.2104730224609375 0.1835 L -2.2104730224609375 0.129 Q -2.2104730224609375 0.1205 -2.2047230224609375 0.11474999999999996 Q -2.1989730224609376 0.10899999999999999 -2.1904730224609374 0.10899999999999999 M -2.2934730224609376 0.33799999999999997 Q -2.2684730224609373 0.33799999999999997 -2.2492230224609373 0.325 Q -2.2299730224609373 0.312 -2.2189730224609376 0.28975 Q -2.2079730224609375 0.26749999999999996 -2.2079730224609375 0.2395 Q -2.2079730224609375 0.212 -2.2189730224609376 0.18975 Q -2.2299730224609373 0.16749999999999998 -2.2492230224609373 0.15475 Q -2.2684730224609373 0.142 -2.2934730224609376 0.142 Q -2.3179730224609374 0.142 -2.3372230224609374 0.1545 Q -2.3564730224609374 0.16699999999999998 -2.3674730224609375 0.189 Q -2.3784730224609376 0.211 -2.3784730224609376 0.2395 Q -2.3784730224609376 0.26749999999999996 -2.3674730224609375 0.28975 Q -2.3564730224609374 0.312 -2.3372230224609374 0.325 Q -2.3179730224609374 0.33799999999999997 -2.2934730224609376 0.33799999999999997 M -2.1109686279296875 0.329 Q -2.1154686279296877 0.3225 -2.1149686279296875 0.31525 Q -2.1144686279296874 0.308 -2.1064686279296874 0.3025 Q -2.1014686279296875 0.299 -2.0947186279296877 0.2995 Q -2.0879686279296874 0.3 -2.0824686279296873 0.306 Q -2.0684686279296876 0.3225 -2.0504686279296873 0.33225 Q -2.0324686279296875 0.34199999999999997 -2.0064686279296877 0.34199999999999997 Q -1.9944686279296875 0.34149999999999997 -1.9824686279296875 0.33799999999999997 Q -1.9704686279296875 0.3345 -1.9622186279296874 0.32575 Q -1.9539686279296875 0.317 -1.9539686279296875 0.3025 Q -1.9539686279296875 0.2885 -1.9624686279296875 0.28025 Q -1.9709686279296874 0.272 -1.9844686279296875 0.26675 Q -1.9979686279296875 0.2615 -2.0139686279296876 0.2575 Q -2.0304686279296873 0.253 -2.0464686279296873 0.24725 Q -2.0624686279296873 0.2415 -2.0752186279296874 0.23274999999999998 Q -2.0879686279296874 0.224 -2.0957186279296875 0.21075 Q -2.1034686279296877 0.19749999999999998 -2.1034686279296877 0.1785 Q -2.1034686279296877 0.156 -2.0912186279296874 0.13949999999999999 Q -2.0789686279296875 0.123 -2.0582186279296875 0.11399999999999999 Q -2.0374686279296874 0.10499999999999998 -2.0129686279296877 0.10499999999999998 Q -1.9989686279296874 0.10499999999999998 -1.9837186279296875 0.10825000000000001 Q -1.9684686279296875 0.11149999999999999 -1.9539686279296875 0.11924999999999997 Q -1.9394686279296875 0.127 -1.9284686279296874 0.14049999999999999 Q -1.9239686279296875 0.1455 -1.9234686279296875 0.153 Q -1.9229686279296876 0.1605 -1.9299686279296875 0.16649999999999998 Q -1.9354686279296875 0.17049999999999998 -1.9422186279296876 0.16999999999999998 Q -1.9489686279296876 0.16949999999999998 -1.9534686279296876 0.16499999999999998 Q -1.9639686279296875 0.1525 -1.9797186279296874 0.14575 Q -1.9954686279296876 0.13899999999999998 -2.0144686279296873 0.13899999999999998 Q -2.0264686279296873 0.13899999999999998 -2.0379686279296876 0.1425 Q -2.0494686279296874 0.146 -2.0572186279296876 0.15425 Q -2.0649686279296873 0.16249999999999998 -2.0649686279296873 0.177 Q -2.0644686279296875 0.1905 -2.0559686279296874 0.19899999999999998 Q -2.0474686279296876 0.2075 -2.0329686279296877 0.21275 Q -2.0184686279296873 0.218 -2.0009686279296877 0.223 Q -1.9849686279296874 0.22699999999999998 -1.9702186279296874 0.23224999999999998 Q -1.9554686279296876 0.2375 -1.9434686279296876 0.246 Q -1.9314686279296875 0.2545 -1.9244686279296874 0.26775 Q -1.9174686279296875 0.281 -1.9174686279296875 0.301 Q -1.9174686279296875 0.324 -1.9304686279296874 0.34075 Q -1.9434686279296876 0.3575 -1.9647186279296875 0.36625 Q -1.9859686279296875 0.375 -2.0104686279296873 0.375 Q -2.0379686279296876 0.375 -2.0647186279296874 0.3645 Q -2.0914686279296877 0.354 -2.1109686279296875 0.329 M -1.7424691162109376 0.375 Q -1.7824691162109374 0.375 -1.8124691162109374 0.358 Q -1.8424691162109375 0.34099999999999997 -1.8589691162109374 0.31124999999999997 Q -1.8754691162109376 0.2815 -1.8754691162109376 0.2425 Q -1.8754691162109376 0.19899999999999998 -1.8582191162109376 0.16824999999999998 Q -1.8409691162109374 0.13749999999999998 -1.8134691162109375 0.12125 Q -1.7859691162109375 0.10499999999999998 -1.7549691162109375 0.10499999999999998 Q -1.7314691162109375 0.10499999999999998 -1.7102191162109375 0.11349999999999999 Q -1.6889691162109375 0.122 -1.6722191162109374 0.13824999999999998 Q -1.6554691162109374 0.1545 -1.6454691162109376 0.17725 Q -1.6354691162109374 0.19999999999999998 -1.6349691162109374 0.22799999999999998 Q -1.6354691162109374 0.236 -1.6414691162109376 0.2415 Q -1.6474691162109374 0.247 -1.6554691162109374 0.247 L -1.8529691162109374 0.247 L -1.8619691162109375 0.2125 L -1.6694691162109374 0.2125 L -1.6774691162109374 0.2195 L -1.6774691162109374 0.2085 Q -1.6789691162109375 0.188 -1.6907191162109374 0.17325 Q -1.7024691162109375 0.1585 -1.7194691162109375 0.1505 Q -1.7364691162109376 0.1425 -1.7549691162109375 0.1425 Q -1.7699691162109374 0.1425 -1.7847191162109375 0.14775 Q -1.7994691162109375 0.153 -1.8112191162109375 0.16474999999999998 Q -1.8229691162109376 0.1765 -1.8299691162109375 0.19499999999999998 Q -1.8369691162109374 0.2135 -1.8369691162109374 0.2395 Q -1.8369691162109374 0.26849999999999996 -1.8252191162109375 0.2905 Q -1.8134691162109375 0.3125 -1.7924691162109374 0.32525 Q -1.7714691162109375 0.33799999999999997 -1.7439691162109374 0.33799999999999997 Q -1.7259691162109374 0.33799999999999997 -1.7129691162109375 0.3335 Q -1.6999691162109376 0.329 -1.6907191162109374 0.32225 Q -1.6814691162109374 0.3155 -1.6749691162109375 0.3085 Q -1.6684691162109375 0.304 -1.6619691162109376 0.304 Q -1.6549691162109375 0.304 -1.6499691162109376 0.309 Q -1.6449691162109374 0.314 -1.6449691162109374 0.321 Q -1.6449691162109374 0.3295 -1.6529691162109375 0.33599999999999997 Q -1.6674691162109374 0.3515 -1.6912191162109376 0.36325 Q -1.7149691162109375 0.375 -1.7424691162109376 0.375 M -1.3669561767578124 0 Q -1.3579561767578125 0 -1.3524561767578125 0.005749999999999977 Q -1.3469561767578124 0.01150000000000001 -1.3469561767578124 0.019999999999999962 L -1.3469561767578124 0.3495 Q -1.3469561767578124 0.358 -1.3527061767578126 0.364 Q -1.3584561767578125 0.37 -1.3669561767578124 0.37 Q -1.3754561767578124 0.37 -1.3812061767578125 0.364 Q -1.3869561767578125 0.358 -1.3869561767578125 0.3495 L -1.3869561767578125 0.302 L -1.3774561767578124 0.2985 Q -1.3774561767578124 0.3105 -1.3847061767578124 0.32375 Q -1.3919561767578126 0.33699999999999997 -1.4052061767578126 0.3485 Q -1.4184561767578125 0.36 -1.4359561767578124 0.3675 Q -1.4534561767578125 0.375 -1.4739561767578124 0.375 Q -1.5079561767578125 0.375 -1.5349561767578126 0.3575 Q -1.5619561767578125 0.33999999999999997 -1.5777061767578124 0.3095 Q -1.5934561767578126 0.279 -1.5934561767578126 0.24 Q -1.5934561767578126 0.20049999999999998 -1.5777061767578124 0.16999999999999998 Q -1.5619561767578125 0.13949999999999999 -1.5352061767578125 0.12225 Q -1.5084561767578124 0.10499999999999998 -1.4749561767578125 0.10499999999999998 Q -1.4539561767578124 0.10499999999999998 -1.4357061767578125 0.11199999999999999 Q -1.4174561767578124 0.119 -1.4034561767578124 0.13099999999999998 Q -1.3894561767578124 0.143 -1.3817061767578125 0.1575 Q -1.3739561767578126 0.172 -1.3739561767578126 0.1865 L -1.3869561767578125 0.1835 L -1.3869561767578125 0.019999999999999962 Q -1.3869561767578125 0.01150000000000001 -1.3812061767578125 0.005749999999999977 Q -1.3754561767578124 0 -1.3669561767578124 0 M -1.4699561767578124 0.33799999999999997 Q -1.4444561767578126 0.33799999999999997 -1.4254561767578124 0.32525 Q -1.4064561767578125 0.3125 -1.3954561767578124 0.29025 Q -1.3844561767578125 0.268 -1.3844561767578125 0.24 Q -1.3844561767578125 0.2115 -1.3954561767578124 0.1895 Q -1.4064561767578125 0.16749999999999998 -1.4257061767578125 0.15475 Q -1.4449561767578125 0.142 -1.4699561767578124 0.142 Q -1.4944561767578124 0.142 -1.5137061767578124 0.15475 Q -1.5329561767578126 0.16749999999999998 -1.5439561767578125 0.1895 Q -1.5549561767578124 0.2115 -1.5549561767578124 0.24 Q -1.5549561767578124 0.26749999999999996 -1.5439561767578125 0.28975 Q -1.5329561767578126 0.312 -1.5137061767578124 0.325 Q -1.4944561767578124 0.33799999999999997 -1.4699561767578124 0.33799999999999997 M -1.0869395751953126 0.3495 Q -1.0869395751953126 0.358 -1.0931895751953125 0.364 Q -1.0994395751953125 0.37 -1.1079395751953125 0.37 Q -1.1174395751953126 0.37 -1.1229395751953124 0.364 Q -1.1284395751953125 0.358 -1.1284395751953125 0.3495 L -1.1284395751953125 0.04049999999999998 Q -1.1284395751953125 0.03149999999999997 -1.1224395751953125 0.025749999999999995 Q -1.1164395751953125 0.019999999999999962 -1.1074395751953126 0.019999999999999962 Q -1.0989395751953126 0.019999999999999962 -1.0929395751953126 0.025749999999999995 Q -1.0869395751953126 0.03149999999999997 -1.0869395751953126 0.04049999999999998 L -1.0869395751953126 0.3495 M -0.8774534912109375 0.10499999999999998 Q -0.8434534912109375 0.10499999999999998 -0.8239534912109375 0.119 Q -0.8044534912109375 0.13299999999999998 -0.7962034912109375 0.1565 Q -0.7879534912109375 0.18 -0.7879534912109375 0.209 L -0.7879534912109375 0.3495 Q -0.7879534912109375 0.358 -0.7937034912109375 0.364 Q -0.7994534912109375 0.37 -0.8079534912109375 0.37 Q -0.8164534912109375 0.37 -0.8222034912109375 0.364 Q -0.8279534912109375 0.358 -0.8279534912109375 0.3495 L -0.8279534912109375 0.21 Q -0.8279534912109375 0.191 -0.8337034912109376 0.17575 Q -0.8394534912109375 0.1605 -0.8527034912109375 0.15125 Q -0.8659534912109375 0.142 -0.8889534912109375 0.142 Q -0.9099534912109375 0.142 -0.9274534912109375 0.15125 Q -0.9449534912109375 0.1605 -0.9554534912109375 0.17575 Q -0.9659534912109375 0.191 -0.9659534912109375 0.21 L -0.9659534912109375 0.3495 Q -0.9659534912109375 0.358 -0.9717034912109375 0.364 Q -0.9774534912109375 0.37 -0.9859534912109374 0.37 Q -0.9944534912109375 0.37 -1.0002034912109374 0.364 Q -1.0059534912109376 0.358 -1.0059534912109376 0.3495 L -1.0059534912109376 0.13149999999999998 Q -1.0059534912109376 0.123 -1.0002034912109374 0.11724999999999997 Q -0.9944534912109375 0.11149999999999999 -0.9859534912109374 0.11149999999999999 Q -0.9769534912109374 0.11149999999999999 -0.9714534912109375 0.11724999999999997 Q -0.9659534912109375 0.123 -0.9659534912109375 0.13149999999999998 L -0.9659534912109375 0.16699999999999998 L -0.9759534912109376 0.178 Q -0.9734534912109375 0.16499999999999998 -0.9644534912109375 0.15175 Q -0.9554534912109375 0.13849999999999998 -0.9419534912109375 0.128 Q -0.9284534912109375 0.1175 -0.9119534912109375 0.11125000000000002 Q -0.8954534912109375 0.10499999999999998 -0.8774534912109375 0.10499999999999998 M -0.6669613037109375 0.387 Q -0.6669613037109375 0.4125 -0.6782113037109375 0.4305 Q -0.6894613037109375 0.4485 -0.7064613037109375 0.4585 Q -0.7234613037109375 0.4685 -0.7419613037109375 0.4685 Q -0.7504613037109376 0.4685 -0.7557113037109375 0.46299999999999997 Q -0.7609613037109375 0.4575 -0.7609613037109375 0.45 L -0.7609613037109375 0.4465 Q -0.7609613037109375 0.439 -0.7559613037109375 0.4345 Q -0.7509613037109375 0.43 -0.7434613037109375 0.428 Q -0.7319613037109375 0.425 -0.7239613037109375 0.41875 Q -0.7159613037109375 0.4125 -0.7114613037109375 0.40225 Q -0.7069613037109375 0.392 -0.7069613037109375 0.378 L -0.7069613037109375 0.13149999999999998 Q -0.7069613037109375 0.123 -0.7012113037109375 0.11699999999999999 Q -0.6954613037109375 0.11099999999999999 -0.6869613037109374 0.11099999999999999 Q -0.6779613037109375 0.11099999999999999 -0.6724613037109375 0.11699999999999999 Q -0.6669613037109375 0.123 -0.6669613037109375 0.13149999999999998 L -0.6669613037109375 0.387 M -0.6869613037109374 0.07400000000000001 Q -0.6994613037109375 0.07400000000000001 -0.7054613037109375 0.069 Q -0.7114613037109375 0.064 -0.7114613037109375 0.05349999999999999 L -0.7114613037109375 0.046499999999999986 Q -0.7114613037109375 0.035999999999999976 -0.7049613037109375 0.030999999999999972 Q -0.6984613037109375 0.025999999999999968 -0.6864613037109375 0.025999999999999968 Q -0.6744613037109375 0.025999999999999968 -0.6684613037109375 0.030999999999999972 Q -0.6624613037109375 0.035999999999999976 -0.6624613037109375 0.046499999999999986 L -0.6624613037109375 0.05349999999999999 Q -0.6624613037109375 0.064 -0.6687113037109375 0.069 Q -0.6749613037109375 0.07400000000000001 -0.6869613037109374 0.07400000000000001 M -0.4609749755859375 0.375 Q -0.5009749755859375 0.375 -0.5309749755859375 0.358 Q -0.5609749755859375 0.34099999999999997 -0.5774749755859375 0.31124999999999997 Q -0.5939749755859375 0.2815 -0.5939749755859375 0.2425 Q -0.5939749755859375 0.19899999999999998 -0.5767249755859375 0.16824999999999998 Q -0.5594749755859375 0.13749999999999998 -0.5319749755859375 0.12125 Q -0.5044749755859375 0.10499999999999998 -0.4734749755859375 0.10499999999999998 Q -0.44997497558593746 0.10499999999999998 -0.4287249755859375 0.11349999999999999 Q -0.4074749755859375 0.122 -0.3907249755859375 0.13824999999999998 Q -0.3739749755859375 0.1545 -0.3639749755859375 0.17725 Q -0.3539749755859375 0.19999999999999998 -0.3534749755859375 0.22799999999999998 Q -0.3539749755859375 0.236 -0.3599749755859375 0.2415 Q -0.3659749755859375 0.247 -0.3739749755859375 0.247 L -0.5714749755859375 0.247 L -0.5804749755859375 0.2125 L -0.3879749755859375 0.2125 L -0.3959749755859375 0.2195 L -0.3959749755859375 0.2085 Q -0.3974749755859375 0.188 -0.4092249755859375 0.17325 Q -0.4209749755859375 0.1585 -0.4379749755859375 0.1505 Q -0.45497497558593747 0.1425 -0.4734749755859375 0.1425 Q -0.4884749755859375 0.1425 -0.5032249755859375 0.14775 Q -0.5179749755859375 0.153 -0.5297249755859375 0.16474999999999998 Q -0.5414749755859375 0.1765 -0.5484749755859375 0.19499999999999998 Q -0.5554749755859375 0.2135 -0.5554749755859375 0.2395 Q -0.5554749755859375 0.26849999999999996 -0.5437249755859375 0.2905 Q -0.5319749755859375 0.3125 -0.5109749755859375 0.32525 Q -0.4899749755859375 0.33799999999999997 -0.46247497558593753 0.33799999999999997 Q -0.4444749755859375 0.33799999999999997 -0.4314749755859375 0.3335 Q -0.4184749755859375 0.329 -0.4092249755859375 0.32225 Q -0.39997497558593753 0.3155 -0.39347497558593747 0.3085 Q -0.3869749755859375 0.304 -0.38047497558593746 0.304 Q -0.3734749755859375 0.304 -0.3684749755859375 0.309 Q -0.3634749755859375 0.314 -0.3634749755859375 0.321 Q -0.3634749755859375 0.3295 -0.3714749755859375 0.33599999999999997 Q -0.3859749755859375 0.3515 -0.40972497558593746 0.36325 Q -0.4334749755859375 0.375 -0.4609749755859375 0.375 M -0.1834620361328125 0.10499999999999998 Q -0.15796203613281248 0.10499999999999998 -0.1374620361328125 0.11049999999999999 Q -0.1169620361328125 0.11599999999999999 -0.10496203613281249 0.1255 Q -0.09296203613281251 0.13499999999999998 -0.09296203613281251 0.147 Q -0.09296203613281251 0.1535 -0.09721203613281248 0.1595 Q -0.10146203613281249 0.16549999999999998 -0.1094620361328125 0.16549999999999998 Q -0.1159620361328125 0.16549999999999998 -0.1202120361328125 0.16299999999999998 Q -0.12446203613281251 0.1605 -0.12821203613281248 0.1565 Q -0.1319620361328125 0.1525 -0.1384620361328125 0.1495 Q -0.1444620361328125 0.146 -0.1559620361328125 0.144 Q -0.1674620361328125 0.142 -0.1794620361328125 0.142 Q -0.2064620361328125 0.142 -0.22746203613281252 0.155 Q -0.24846203613281248 0.16799999999999998 -0.2602120361328125 0.19 Q -0.2719620361328125 0.212 -0.2719620361328125 0.24 Q -0.2719620361328125 0.268 -0.2604620361328125 0.29 Q -0.24896203613281248 0.312 -0.22846203613281252 0.325 Q -0.2079620361328125 0.33799999999999997 -0.1809620361328125 0.33799999999999997 Q -0.1634620361328125 0.33799999999999997 -0.1532120361328125 0.33499999999999996 Q -0.1429620361328125 0.332 -0.1354620361328125 0.328 Q -0.12696203613281248 0.323 -0.12221203613281251 0.318 Q -0.1174620361328125 0.313 -0.1089620361328125 0.313 Q -0.10046203613281249 0.313 -0.09596203613281248 0.3185 Q -0.09146203613281251 0.324 -0.09146203613281251 0.332 Q -0.09146203613281251 0.34099999999999997 -0.10396203613281249 0.351 Q -0.1164620361328125 0.361 -0.1377120361328125 0.368 Q -0.15896203613281248 0.375 -0.1854620361328125 0.375 Q -0.2234620361328125 0.375 -0.2519620361328125 0.35725 Q -0.2804620361328125 0.3395 -0.2962120361328125 0.30874999999999997 Q -0.3119620361328125 0.278 -0.3119620361328125 0.24 Q -0.3119620361328125 0.20199999999999999 -0.2957120361328125 0.17149999999999999 Q -0.2794620361328125 0.141 -0.2504620361328125 0.123 Q -0.2214620361328125 0.10499999999999998 -0.1834620361328125 0.10499999999999998 M -0.048973510742187504 0.11299999999999999 L 0.06852648925781249 0.11299999999999999 Q 0.0765264892578125 0.11299999999999999 0.0817764892578125 0.1185 Q 0.0870264892578125 0.124 0.0870264892578125 0.13149999999999998 Q 0.0870264892578125 0.13949999999999999 0.0817764892578125 0.14475 Q 0.0765264892578125 0.15 0.06852648925781249 0.15 L -0.048973510742187504 0.15 Q -0.0564735107421875 0.15 -0.0619735107421875 0.1445 Q -0.06747351074218749 0.13899999999999998 -0.06747351074218749 0.13099999999999998 Q -0.06747351074218749 0.1235 -0.0619735107421875 0.11824999999999997 Q -0.0564735107421875 0.11299999999999999 -0.048973510742187504 0.11299999999999999 M 0.0035264892578125012 0.044999999999999984 Q 0.012026489257812495 0.044999999999999984 0.0175264892578125 0.05074999999999996 Q 0.023026489257812505 0.056499999999999995 0.023026489257812505 0.065 L 0.023026489257812505 0.3065 Q 0.023026489257812505 0.3185 0.026526489257812508 0.3245 Q 0.030026489257812497 0.3305 0.0357764892578125 0.33275 Q 0.04152648925781251 0.33499999999999996 0.0470264892578125 0.33499999999999996 Q 0.0520264892578125 0.33499999999999996 0.055776489257812506 0.33325 Q 0.05952648925781251 0.3315 0.06452648925781251 0.3315 Q 0.06952648925781249 0.3315 0.0737764892578125 0.33625 Q 0.0780264892578125 0.34099999999999997 0.0780264892578125 0.3485 Q 0.0780264892578125 0.3575 0.06752648925781252 0.36375 Q 0.05702648925781251 0.37 0.044026489257812496 0.37 Q 0.0370264892578125 0.37 0.026776489257812508 0.369 Q 0.0165264892578125 0.368 0.006526489257812504 0.3625 Q -0.003473510742187505 0.357 -0.010223510742187497 0.34425 Q -0.016973510742187496 0.3315 -0.016973510742187496 0.3085 L -0.016973510742187496 0.065 Q -0.016973510742187496 0.056499999999999995 -0.010973510742187498 0.05074999999999996 Q -0.0049735107421874925 0.044999999999999984 0.0035264892578125012 0.044999999999999984 M 0.1810145263671875 0.3495 Q 0.1810145263671875 0.358 0.17526452636718753 0.364 Q 0.16951452636718753 0.37 0.16101452636718752 0.37 Q 0.15201452636718754 0.37 0.14651452636718754 0.364 Q 0.14101452636718753 0.358 0.14101452636718753 0.3495 L 0.14101452636718753 0.1275 Q 0.14101452636718753 0.119 0.14676452636718754 0.11325000000000002 Q 0.15251452636718754 0.10749999999999998 0.16101452636718752 0.10749999999999998 Q 0.16951452636718753 0.10749999999999998 0.17526452636718753 0.11325000000000002 Q 0.1810145263671875 0.119 0.1810145263671875 0.1275 L 0.1810145263671875 0.3495 M 0.16101452636718752 0.07400000000000001 Q 0.14851452636718754 0.07400000000000001 0.14251452636718753 0.069 Q 0.13651452636718753 0.064 0.13651452636718753 0.05349999999999999 L 0.13651452636718753 0.046499999999999986 Q 0.13651452636718753 0.035999999999999976 0.14301452636718753 0.030999999999999972 Q 0.14951452636718754 0.025999999999999968 0.16151452636718752 0.025999999999999968 Q 0.17351452636718753 0.025999999999999968 0.1795145263671875 0.030999999999999972 Q 0.18551452636718752 0.035999999999999976 0.18551452636718752 0.046499999999999986 L 0.18551452636718752 0.05349999999999999 Q 0.18551452636718752 0.064 0.17926452636718754 0.069 Q 0.17301452636718753 0.07400000000000001 0.16101452636718752 0.07400000000000001 M 0.4960186767578126 0.24 Q 0.4960186767578126 0.279 0.47901867675781257 0.3095 Q 0.46201867675781255 0.33999999999999997 0.43276867675781255 0.3575 Q 0.40351867675781256 0.375 0.3665186767578126 0.375 Q 0.33001867675781255 0.375 0.30076867675781255 0.3575 Q 0.27151867675781255 0.33999999999999997 0.25426867675781256 0.3095 Q 0.23701867675781255 0.279 0.23701867675781255 0.24 Q 0.23701867675781255 0.20099999999999998 0.25426867675781256 0.17049999999999998 Q 0.27151867675781255 0.13999999999999999 0.30076867675781255 0.1225 Q 0.33001867675781255 0.10499999999999998 0.3665186767578126 0.10499999999999998 Q 0.40351867675781256 0.10499999999999998 0.43276867675781255 0.1225 Q 0.46201867675781255 0.13999999999999999 0.47901867675781257 0.17049999999999998 Q 0.4960186767578126 0.20099999999999998 0.4960186767578126 0.24 M 0.45601867675781255 0.24 Q 0.45601867675781255 0.211 0.44426867675781256 0.189 Q 0.4325186767578125 0.16699999999999998 0.41226867675781254 0.1545 Q 0.39201867675781255 0.142 0.3665186767578126 0.142 Q 0.34151867675781256 0.142 0.32101867675781254 0.1545 Q 0.3005186767578126 0.16699999999999998 0.28876867675781254 0.189 Q 0.27701867675781255 0.211 0.27701867675781255 0.24 Q 0.27701867675781255 0.26849999999999996 0.28876867675781254 0.2905 Q 0.3005186767578126 0.3125 0.32101867675781254 0.32525 Q 0.34151867675781256 0.33799999999999997 0.3665186767578126 0.33799999999999997 Q 0.39201867675781255 0.33799999999999997 0.41226867675781254 0.32525 Q 0.4325186767578125 0.3125 0.44426867675781256 0.2905 Q 0.45601867675781255 0.26849999999999996 0.45601867675781255 0.24 M 0.6825135498046875 0.10499999999999998 Q 0.7165135498046875 0.10499999999999998 0.7360135498046875 0.119 Q 0.7555135498046875 0.13299999999999998 0.7637635498046875 0.1565 Q 0.7720135498046875 0.18 0.7720135498046875 0.209 L 0.7720135498046875 0.3495 Q 0.7720135498046875 0.358 0.7662635498046875 0.364 Q 0.7605135498046875 0.37 0.7520135498046875 0.37 Q 0.7435135498046875 0.37 0.7377635498046875 0.364 Q 0.7320135498046875 0.358 0.7320135498046875 0.3495 L 0.7320135498046875 0.21 Q 0.7320135498046875 0.191 0.7262635498046874 0.17575 Q 0.7205135498046875 0.1605 0.7072635498046875 0.15125 Q 0.6940135498046875 0.142 0.6710135498046875 0.142 Q 0.6500135498046875 0.142 0.6325135498046875 0.15125 Q 0.6150135498046875 0.1605 0.6045135498046875 0.17575 Q 0.5940135498046875 0.191 0.5940135498046875 0.21 L 0.5940135498046875 0.3495 Q 0.5940135498046875 0.358 0.5882635498046875 0.364 Q 0.5825135498046875 0.37 0.5740135498046876 0.37 Q 0.5655135498046875 0.37 0.5597635498046875 0.364 Q 0.5540135498046875 0.358 0.5540135498046875 0.3495 L 0.5540135498046875 0.13149999999999998 Q 0.5540135498046875 0.123 0.5597635498046875 0.11724999999999997 Q 0.5655135498046875 0.11149999999999999 0.5740135498046876 0.11149999999999999 Q 0.5830135498046876 0.11149999999999999 0.5885135498046875 0.11724999999999997 Q 0.5940135498046875 0.123 0.5940135498046875 0.13149999999999998 L 0.5940135498046875 0.16699999999999998 L 0.5840135498046874 0.178 Q 0.5865135498046875 0.16499999999999998 0.5955135498046875 0.15175 Q 0.6045135498046875 0.13849999999999998 0.6180135498046875 0.128 Q 0.6315135498046875 0.1175 0.6480135498046875 0.11125000000000002 Q 0.6645135498046875 0.10499999999999998 0.6825135498046875 0.10499999999999998 M 1.0915179443359375 0.0010000000000000009 Q 1.1000179443359375 0.0010000000000000009 1.1092679443359375 0.0030000000000000027 Q 1.1185179443359374 0.0050000000000000044 1.1252679443359375 0.010000000000000009 Q 1.1320179443359375 0.015000000000000013 1.1320179443359375 0.023499999999999965 Q 1.1320179443359375 0.03149999999999997 1.1270179443359374 0.036750000000000005 Q 1.1220179443359375 0.04199999999999998 1.1150179443359376 0.04199999999999998 Q 1.1105179443359374 0.04199999999999998 1.1025179443359374 0.03925000000000001 Q 1.0945179443359374 0.03649999999999998 1.0860179443359375 0.03649999999999998 Q 1.0745179443359376 0.03649999999999998 1.0672679443359374 0.04149999999999998 Q 1.0600179443359374 0.046499999999999986 1.0567679443359375 0.054749999999999965 Q 1.0535179443359375 0.063 1.0535179443359375 0.07300000000000001 L 1.0535179443359375 0.3495 Q 1.0535179443359375 0.358 1.0477679443359376 0.364 Q 1.0420179443359374 0.37 1.0335179443359375 0.37 Q 1.0245179443359376 0.37 1.0190179443359375 0.364 Q 1.0135179443359374 0.358 1.0135179443359374 0.3495 L 1.0135179443359374 0.07350000000000001 Q 1.0135179443359374 0.03999999999999998 1.0342679443359375 0.020499999999999963 Q 1.0550179443359375 0.0010000000000000009 1.0915179443359375 0.0010000000000000009 M 1.1055179443359375 0.11549999999999999 Q 1.1135179443359375 0.11549999999999999 1.1190179443359376 0.12075 Q 1.1245179443359374 0.126 1.1245179443359374 0.13399999999999998 Q 1.1245179443359374 0.142 1.1190179443359376 0.14725 Q 1.1135179443359375 0.1525 1.1055179443359375 0.1525 L 0.9800179443359375 0.1525 Q 0.9720179443359375 0.1525 0.9665179443359375 0.147 Q 0.9610179443359375 0.1415 0.9610179443359375 0.13399999999999998 Q 0.9610179443359375 0.1255 0.9665179443359375 0.1205 Q 0.9720179443359375 0.11549999999999999 0.9800179443359375 0.11549999999999999 L 1.1055179443359375 0.11549999999999999 M 1.4140179443359375 0.24 Q 1.4140179443359375 0.279 1.3970179443359374 0.3095 Q 1.3800179443359375 0.33999999999999997 1.3507679443359375 0.3575 Q 1.3215179443359375 0.375 1.2845179443359376 0.375 Q 1.2480179443359376 0.375 1.2187679443359376 0.3575 Q 1.1895179443359376 0.33999999999999997 1.1722679443359374 0.3095 Q 1.1550179443359374 0.279 1.1550179443359374 0.24 Q 1.1550179443359374 0.20099999999999998 1.1722679443359374 0.17049999999999998 Q 1.1895179443359376 0.13999999999999999 1.2187679443359376 0.1225 Q 1.2480179443359376 0.10499999999999998 1.2845179443359376 0.10499999999999998 Q 1.3215179443359375 0.10499999999999998 1.3507679443359375 0.1225 Q 1.3800179443359375 0.13999999999999999 1.3970179443359374 0.17049999999999998 Q 1.4140179443359375 0.20099999999999998 1.4140179443359375 0.24 M 1.3740179443359375 0.24 Q 1.3740179443359375 0.211 1.3622679443359376 0.189 Q 1.3505179443359374 0.16699999999999998 1.3302679443359375 0.1545 Q 1.3100179443359374 0.142 1.2845179443359376 0.142 Q 1.2595179443359374 0.142 1.2390179443359375 0.1545 Q 1.2185179443359375 0.16699999999999998 1.2067679443359376 0.189 Q 1.1950179443359374 0.211 1.1950179443359374 0.24 Q 1.1950179443359374 0.26849999999999996 1.2067679443359376 0.2905 Q 1.2185179443359375 0.3125 1.2390179443359375 0.32525 Q 1.2595179443359374 0.33799999999999997 1.2845179443359376 0.33799999999999997 Q 1.3100179443359374 0.33799999999999997 1.3302679443359375 0.32525 Q 1.3505179443359374 0.3125 1.3622679443359376 0.2905 Q 1.3740179443359375 0.26849999999999996 1.3740179443359375 0.24 M 1.4920128173828124 0.37 Q 1.4835128173828125 0.37 1.4777628173828126 0.364 Q 1.4720128173828124 0.358 1.4720128173828124 0.3495 L 1.4720128173828124 0.13149999999999998 Q 1.4720128173828124 0.123 1.4777628173828126 0.11724999999999997 Q 1.4835128173828125 0.11149999999999999 1.4920128173828124 0.11149999999999999 Q 1.5010128173828126 0.11149999999999999 1.5065128173828124 0.11724999999999997 Q 1.5120128173828125 0.123 1.5120128173828125 0.13149999999999998 L 1.5120128173828125 0.19749999999999998 L 1.5060128173828125 0.187 Q 1.5090128173828126 0.17149999999999999 1.5167628173828125 0.15675 Q 1.5245128173828124 0.142 1.5365128173828124 0.13024999999999998 Q 1.5485128173828124 0.1185 1.5640128173828125 0.11175000000000002 Q 1.5795128173828126 0.10499999999999998 1.5980128173828125 0.10499999999999998 Q 1.6090128173828124 0.10499999999999998 1.6182628173828124 0.11025000000000001 Q 1.6275128173828124 0.11549999999999999 1.6275128173828124 0.125 Q 1.6275128173828124 0.13549999999999998 1.6220128173828126 0.14049999999999999 Q 1.6165128173828125 0.1455 1.6095128173828126 0.1455 Q 1.6030128173828124 0.1455 1.5970128173828124 0.14275 Q 1.5910128173828124 0.13999999999999999 1.5820128173828125 0.13999999999999999 Q 1.5695128173828126 0.13999999999999999 1.5572628173828125 0.14675 Q 1.5450128173828126 0.1535 1.5347628173828125 0.16599999999999998 Q 1.5245128173828124 0.1785 1.5182628173828125 0.19424999999999998 Q 1.5120128173828125 0.21 1.5120128173828125 0.22799999999999998 L 1.5120128173828125 0.3495 Q 1.5120128173828125 0.358 1.5062628173828125 0.364 Q 1.5005128173828126 0.37 1.4920128173828124 0.37 M 1.8995255126953126 0.375 Q 1.8690255126953126 0.375 1.8442755126953125 0.3595 Q 1.8195255126953125 0.344 1.8055255126953125 0.318 Q 1.8020255126953124 0.312 1.8020255126953124 0.3065 Q 1.8020255126953124 0.298 1.8085255126953126 0.29275 Q 1.8150255126953125 0.2875 1.8215255126953125 0.2875 Q 1.8270255126953125 0.2875 1.8317755126953126 0.2905 Q 1.8365255126953124 0.2935 1.8400255126953124 0.298 Q 1.8500255126953125 0.315 1.8650255126953126 0.325 Q 1.8800255126953125 0.33499999999999996 1.8995255126953126 0.33499999999999996 Q 1.9200255126953125 0.33499999999999996 1.9357755126953125 0.326 Q 1.9515255126953126 0.317 1.9607755126953126 0.30125 Q 1.9700255126953126 0.2855 1.9700255126953126 0.2655 L 1.9700255126953126 0.03999999999999998 Q 1.9700255126953126 0.03149999999999997 1.9762755126953124 0.025749999999999995 Q 1.9825255126953125 0.019999999999999962 1.9915255126953124 0.019999999999999962 Q 2.0005255126953125 0.019999999999999962 2.0062755126953125 0.025749999999999995 Q 2.0120255126953124 0.03149999999999997 2.0120255126953124 0.03999999999999998 L 2.0120255126953124 0.2655 Q 2.0120255126953124 0.296 1.9972755126953126 0.321 Q 1.9825255126953125 0.346 1.9572755126953125 0.3605 Q 1.9320255126953125 0.375 1.8995255126953126 0.375 M 2.3030267333984376 0.10899999999999999 Q 2.3120267333984375 0.10899999999999999 2.3175267333984375 0.11474999999999996 Q 2.3230267333984376 0.1205 2.3230267333984376 0.129 L 2.3230267333984376 0.3495 Q 2.3230267333984376 0.358 2.3172767333984376 0.364 Q 2.3115267333984377 0.37 2.3030267333984376 0.37 Q 2.2945267333984374 0.37 2.2887767333984375 0.364 Q 2.2830267333984375 0.358 2.2830267333984375 0.3495 L 2.2830267333984375 0.302 L 2.2925267333984376 0.301 Q 2.2925267333984376 0.312 2.2850267333984373 0.325 Q 2.2775267333984375 0.33799999999999997 2.2645267333984376 0.34925 Q 2.2515267333984377 0.3605 2.2340267333984376 0.36775 Q 2.2165267333984375 0.375 2.1960267333984373 0.375 Q 2.1620267333984375 0.375 2.1347767333984375 0.35725 Q 2.1075267333984375 0.3395 2.0920267333984377 0.309 Q 2.0765267333984374 0.27849999999999997 2.0765267333984374 0.2395 Q 2.0765267333984374 0.19999999999999998 2.0922767333984376 0.16974999999999998 Q 2.1080267333984377 0.13949999999999999 2.1347767333984375 0.12225 Q 2.1615267333984374 0.10499999999999998 2.1950267333984375 0.10499999999999998 Q 2.2165267333984375 0.10499999999999998 2.2350267333984375 0.11199999999999999 Q 2.2535267333984375 0.119 2.2672767333984374 0.13099999999999998 Q 2.2810267333984373 0.143 2.2885267333984376 0.1575 Q 2.2960267333984374 0.172 2.2960267333984374 0.1865 L 2.2830267333984375 0.1835 L 2.2830267333984375 0.129 Q 2.2830267333984375 0.1205 2.2887767333984375 0.11474999999999996 Q 2.2945267333984374 0.10899999999999999 2.3030267333984376 0.10899999999999999 M 2.2000267333984374 0.33799999999999997 Q 2.2250267333984377 0.33799999999999997 2.2442767333984377 0.325 Q 2.2635267333984377 0.312 2.2745267333984374 0.28975 Q 2.2855267333984375 0.26749999999999996 2.2855267333984375 0.2395 Q 2.2855267333984375 0.212 2.2745267333984374 0.18975 Q 2.2635267333984377 0.16749999999999998 2.2442767333984377 0.15475 Q 2.2250267333984377 0.142 2.2000267333984374 0.142 Q 2.1755267333984376 0.142 2.1562767333984376 0.1545 Q 2.1370267333984376 0.16699999999999998 2.1260267333984375 0.189 Q 2.1150267333984374 0.211 2.1150267333984374 0.2395 Q 2.1150267333984374 0.26749999999999996 2.1260267333984375 0.28975 Q 2.1370267333984376 0.312 2.1562767333984376 0.325 Q 2.1755267333984376 0.33799999999999997 2.2000267333984374 0.33799999999999997 M 2.3910191650390624 0.10699999999999998 Q 2.3970191650390626 0.10699999999999998 2.4025191650390627 0.11025000000000001 Q 2.4080191650390623 0.11349999999999999 2.4105191650390627 0.1195 L 2.4935191650390625 0.3145 L 2.4855191650390625 0.3185 L 2.5700191650390627 0.12 Q 2.5755191650390623 0.10649999999999998 2.5885191650390627 0.10699999999999998 Q 2.5960191650390625 0.10699999999999998 2.6015191650390626 0.11199999999999999 Q 2.6070191650390626 0.11699999999999999 2.6070191650390626 0.1245 Q 2.6070191650390626 0.1275 2.6062691650390626 0.13024999999999998 Q 2.6055191650390626 0.13299999999999998 2.6045191650390627 0.13499999999999998 L 2.5080191650390624 0.357 Q 2.5025191650390624 0.3695 2.4905191650390623 0.37 Q 2.4840191650390624 0.3705 2.4782691650390625 0.36725 Q 2.4725191650390625 0.364 2.4700191650390626 0.357 L 2.3735191650390624 0.13549999999999998 Q 2.3725191650390625 0.13349999999999998 2.3717691650390624 0.13099999999999998 Q 2.3710191650390624 0.1285 2.3710191650390624 0.125 Q 2.3710191650390624 0.1185 2.3762691650390626 0.11275000000000002 Q 2.3815191650390624 0.10699999999999998 2.3910191650390624 0.10699999999999998 M 2.8705010986328126 0.10899999999999999 Q 2.8795010986328125 0.10899999999999999 2.8850010986328125 0.11474999999999996 Q 2.8905010986328126 0.1205 2.8905010986328126 0.129 L 2.8905010986328126 0.3495 Q 2.8905010986328126 0.358 2.8847510986328126 0.364 Q 2.8790010986328127 0.37 2.8705010986328126 0.37 Q 2.8620010986328124 0.37 2.8562510986328125 0.364 Q 2.8505010986328125 0.358 2.8505010986328125 0.3495 L 2.8505010986328125 0.302 L 2.8600010986328126 0.301 Q 2.8600010986328126 0.312 2.8525010986328123 0.325 Q 2.8450010986328125 0.33799999999999997 2.8320010986328126 0.34925 Q 2.8190010986328127 0.3605 2.8015010986328126 0.36775 Q 2.7840010986328125 0.375 2.7635010986328123 0.375 Q 2.7295010986328125 0.375 2.7022510986328125 0.35725 Q 2.6750010986328125 0.3395 2.6595010986328127 0.309 Q 2.6440010986328124 0.27849999999999997 2.6440010986328124 0.2395 Q 2.6440010986328124 0.19999999999999998 2.6597510986328126 0.16974999999999998 Q 2.6755010986328127 0.13949999999999999 2.7022510986328125 0.12225 Q 2.7290010986328124 0.10499999999999998 2.7625010986328125 0.10499999999999998 Q 2.7840010986328125 0.10499999999999998 2.8025010986328125 0.11199999999999999 Q 2.8210010986328125 0.119 2.8347510986328124 0.13099999999999998 Q 2.8485010986328123 0.143 2.8560010986328126 0.1575 Q 2.8635010986328124 0.172 2.8635010986328124 0.1865 L 2.8505010986328125 0.1835 L 2.8505010986328125 0.129 Q 2.8505010986328125 0.1205 2.8562510986328125 0.11474999999999996 Q 2.8620010986328124 0.10899999999999999 2.8705010986328126 0.10899999999999999 M 2.7675010986328124 0.33799999999999997 Q 2.7925010986328127 0.33799999999999997 2.8117510986328127 0.325 Q 2.8310010986328127 0.312 2.8420010986328124 0.28975 Q 2.8530010986328125 0.26749999999999996 2.8530010986328125 0.2395 Q 2.8530010986328125 0.212 2.8420010986328124 0.18975 Q 2.8310010986328127 0.16749999999999998 2.8117510986328127 0.15475 Q 2.7925010986328127 0.142 2.7675010986328124 0.142 Q 2.7430010986328126 0.142 2.7237510986328126 0.1545 Q 2.7045010986328126 0.16699999999999998 2.6935010986328125 0.189 Q 2.6825010986328124 0.211 2.6825010986328124 0.2395 Q 2.6825010986328124 0.26749999999999996 2.6935010986328125 0.28975 Q 2.7045010986328126 0.312 2.7237510986328126 0.325 Q 2.7430010986328126 0.33799999999999997 2.7675010986328124 0.33799999999999997 M 2.9500054931640625 0.329 Q 2.9455054931640623 0.3225 2.9460054931640625 0.31525 Q 2.9465054931640626 0.308 2.9545054931640626 0.3025 Q 2.9595054931640625 0.299 2.9662554931640623 0.2995 Q 2.9730054931640626 0.3 2.9785054931640627 0.306 Q 2.9925054931640624 0.3225 3.0105054931640627 0.33225 Q 3.0285054931640625 0.34199999999999997 3.0545054931640623 0.34199999999999997 Q 3.0665054931640627 0.34149999999999997 3.0785054931640623 0.33799999999999997 Q 3.0905054931640623 0.3345 3.0987554931640626 0.32575 Q 3.1070054931640625 0.317 3.1070054931640625 0.3025 Q 3.1070054931640625 0.2885 3.0985054931640623 0.28025 Q 3.0900054931640626 0.272 3.0765054931640625 0.26675 Q 3.0630054931640625 0.2615 3.0470054931640624 0.2575 Q 3.0305054931640627 0.253 3.0145054931640627 0.24725 Q 2.9985054931640627 0.2415 2.9857554931640626 0.23274999999999998 Q 2.9730054931640626 0.224 2.9652554931640625 0.21075 Q 2.9575054931640623 0.19749999999999998 2.9575054931640623 0.1785 Q 2.9575054931640623 0.156 2.9697554931640626 0.13949999999999999 Q 2.9820054931640625 0.123 3.0027554931640625 0.11399999999999999 Q 3.0235054931640626 0.10499999999999998 3.0480054931640623 0.10499999999999998 Q 3.0620054931640626 0.10499999999999998 3.0772554931640625 0.10825000000000001 Q 3.0925054931640625 0.11149999999999999 3.1070054931640625 0.11924999999999997 Q 3.1215054931640625 0.127 3.1325054931640626 0.14049999999999999 Q 3.1370054931640623 0.1455 3.1375054931640625 0.153 Q 3.1380054931640626 0.1605 3.1310054931640625 0.16649999999999998 Q 3.1255054931640625 0.17049999999999998 3.1187554931640626 0.16999999999999998 Q 3.1120054931640624 0.16949999999999998 3.1075054931640627 0.16499999999999998 Q 3.0970054931640627 0.1525 3.0812554931640626 0.14575 Q 3.0655054931640624 0.13899999999999998 3.0465054931640627 0.13899999999999998 Q 3.0345054931640627 0.13899999999999998 3.0230054931640624 0.1425 Q 3.0115054931640626 0.146 3.0037554931640624 0.15425 Q 2.9960054931640627 0.16249999999999998 2.9960054931640627 0.177 Q 2.9965054931640625 0.1905 3.0050054931640626 0.19899999999999998 Q 3.0135054931640624 0.2075 3.0280054931640623 0.21275 Q 3.0425054931640627 0.218 3.0600054931640623 0.223 Q 3.0760054931640624 0.22699999999999998 3.0907554931640626 0.23224999999999998 Q 3.1055054931640624 0.2375 3.1175054931640624 0.246 Q 3.1295054931640625 0.2545 3.1365054931640626 0.26775 Q 3.1435054931640627 0.281 3.1435054931640627 0.301 Q 3.1435054931640627 0.324 3.1305054931640623 0.34075 Q 3.1175054931640624 0.3575 3.0962554931640627 0.36625 Q 3.0750054931640625 0.375 3.0505054931640627 0.375 Q 3.0230054931640624 0.375 2.9962554931640626 0.3645 Q 2.9695054931640623 0.354 2.9500054931640625 0.329 M 3.3140050048828127 0.10499999999999998 Q 3.3395050048828123 0.10499999999999998 3.3600050048828125 0.11049999999999999 Q 3.3805050048828127 0.11599999999999999 3.3925050048828127 0.1255 Q 3.4045050048828127 0.13499999999999998 3.4045050048828127 0.147 Q 3.4045050048828127 0.1535 3.4002550048828124 0.1595 Q 3.3960050048828125 0.16549999999999998 3.3880050048828125 0.16549999999999998 Q 3.3815050048828126 0.16549999999999998 3.3772550048828123 0.16299999999999998 Q 3.3730050048828124 0.1605 3.3692550048828127 0.1565 Q 3.3655050048828126 0.1525 3.3590050048828126 0.1495 Q 3.3530050048828124 0.146 3.3415050048828125 0.144 Q 3.3300050048828127 0.142 3.3180050048828127 0.142 Q 3.2910050048828126 0.142 3.2700050048828126 0.155 Q 3.2490050048828123 0.16799999999999998 3.2372550048828126 0.19 Q 3.2255050048828124 0.212 3.2255050048828124 0.24 Q 3.2255050048828124 0.268 3.2370050048828123 0.29 Q 3.2485050048828126 0.312 3.2690050048828123 0.325 Q 3.2895050048828125 0.33799999999999997 3.3165050048828126 0.33799999999999997 Q 3.3340050048828127 0.33799999999999997 3.3442550048828124 0.33499999999999996 Q 3.3545050048828124 0.332 3.3620050048828123 0.328 Q 3.3705050048828125 0.323 3.3752550048828125 0.318 Q 3.3800050048828125 0.313 3.3885050048828127 0.313 Q 3.3970050048828124 0.313 3.4015050048828126 0.3185 Q 3.4060050048828123 0.324 3.4060050048828123 0.332 Q 3.4060050048828123 0.34099999999999997 3.3935050048828126 0.351 Q 3.3810050048828124 0.361 3.3597550048828126 0.368 Q 3.3385050048828124 0.375 3.3120050048828125 0.375 Q 3.2740050048828127 0.375 3.2455050048828125 0.35725 Q 3.2170050048828127 0.3395 3.2012550048828126 0.30874999999999997 Q 3.1855050048828124 0.278 3.1855050048828124 0.24 Q 3.1855050048828124 0.20199999999999999 3.2017550048828123 0.17149999999999999 Q 3.2180050048828126 0.141 3.2470050048828125 0.123 Q 3.2760050048828124 0.10499999999999998 3.3140050048828127 0.10499999999999998 M 3.4784935302734374 0.37 Q 3.4699935302734377 0.37 3.4642435302734373 0.364 Q 3.4584935302734374 0.358 3.4584935302734374 0.3495 L 3.4584935302734374 0.13149999999999998 Q 3.4584935302734374 0.123 3.4642435302734373 0.11724999999999997 Q 3.4699935302734377 0.11149999999999999 3.4784935302734374 0.11149999999999999 Q 3.4874935302734373 0.11149999999999999 3.4929935302734374 0.11724999999999997 Q 3.4984935302734375 0.123 3.4984935302734375 0.13149999999999998 L 3.4984935302734375 0.19749999999999998 L 3.4924935302734377 0.187 Q 3.4954935302734373 0.17149999999999999 3.5032435302734375 0.15675 Q 3.5109935302734376 0.142 3.5229935302734376 0.13024999999999998 Q 3.5349935302734377 0.1185 3.5504935302734375 0.11175000000000002 Q 3.5659935302734374 0.10499999999999998 3.5844935302734373 0.10499999999999998 Q 3.5954935302734374 0.10499999999999998 3.6047435302734376 0.11025000000000001 Q 3.6139935302734374 0.11549999999999999 3.6139935302734374 0.125 Q 3.6139935302734374 0.13549999999999998 3.6084935302734373 0.14049999999999999 Q 3.6029935302734373 0.1455 3.5959935302734376 0.1455 Q 3.5894935302734376 0.1455 3.5834935302734374 0.14275 Q 3.5774935302734376 0.13999999999999999 3.5684935302734373 0.13999999999999999 Q 3.5559935302734376 0.13999999999999999 3.5437435302734377 0.14675 Q 3.5314935302734374 0.1535 3.5212435302734377 0.16599999999999998 Q 3.5109935302734376 0.1785 3.5047435302734375 0.19424999999999998 Q 3.4984935302734375 0.21 3.4984935302734375 0.22799999999999998 L 3.4984935302734375 0.3495 Q 3.4984935302734375 0.358 3.4927435302734375 0.364 Q 3.4869935302734376 0.37 3.4784935302734374 0.37 M 3.6974940185546874 0.3495 Q 3.6974940185546874 0.358 3.6917440185546875 0.364 Q 3.6859940185546876 0.37 3.6774940185546874 0.37 Q 3.6684940185546875 0.37 3.6629940185546874 0.364 Q 3.6574940185546874 0.358 3.6574940185546874 0.3495 L 3.6574940185546874 0.1275 Q 3.6574940185546874 0.119 3.6632440185546873 0.11325000000000002 Q 3.6689940185546877 0.10749999999999998 3.6774940185546874 0.10749999999999998 Q 3.6859940185546876 0.10749999999999998 3.6917440185546875 0.11325000000000002 Q 3.6974940185546874 0.119 3.6974940185546874 0.1275 L 3.6974940185546874 0.3495 M 3.6774940185546874 0.07400000000000001 Q 3.6649940185546876 0.07400000000000001 3.6589940185546874 0.069 Q 3.6529940185546876 0.064 3.6529940185546876 0.05349999999999999 L 3.6529940185546876 0.046499999999999986 Q 3.6529940185546876 0.035999999999999976 3.6594940185546876 0.030999999999999972 Q 3.6659940185546875 0.025999999999999968 3.6779940185546875 0.025999999999999968 Q 3.6899940185546876 0.025999999999999968 3.6959940185546873 0.030999999999999972 Q 3.7019940185546876 0.035999999999999976 3.7019940185546876 0.046499999999999986 L 3.7019940185546876 0.05349999999999999 Q 3.7019940185546876 0.064 3.6957440185546875 0.069 Q 3.6894940185546874 0.07400000000000001 3.6774940185546874 0.07400000000000001 M 3.8969981689453124 0.10749999999999998 Q 3.9309981689453126 0.10749999999999998 3.9579981689453123 0.1245 Q 3.9849981689453124 0.1415 4.000748168945313 0.17149999999999999 Q 4.016498168945312 0.20149999999999998 4.016498168945312 0.2405 Q 4.016498168945312 0.279 4.000748168945313 0.30925 Q 3.9849981689453124 0.3395 3.9582481689453126 0.35675 Q 3.9314981689453123 0.374 3.8979981689453127 0.374 Q 3.8794981689453123 0.374 3.8632481689453124 0.36825 Q 3.8469981689453125 0.3625 3.8337481689453123 0.35325 Q 3.8204981689453126 0.344 3.8114981689453127 0.33225 Q 3.8024981689453123 0.3205 3.7984981689453123 0.309 L 3.8094981689453125 0.302 L 3.8094981689453125 0.4495 Q 3.8094981689453125 0.45799999999999996 3.8039981689453124 0.46399999999999997 Q 3.7984981689453123 0.47 3.7894981689453124 0.47 Q 3.7809981689453127 0.47 3.7752481689453123 0.46425 Q 3.7694981689453124 0.4585 3.7694981689453124 0.4495 L 3.7694981689453124 0.13 Q 3.7694981689453124 0.1215 3.7752481689453123 0.11574999999999996 Q 3.7809981689453127 0.10999999999999999 3.7894981689453124 0.10999999999999999 Q 3.7984981689453123 0.10999999999999999 3.8039981689453124 0.11574999999999996 Q 3.8094981689453125 0.1215 3.8094981689453125 0.13 L 3.8094981689453125 0.1745 L 3.8019981689453126 0.17049999999999998 Q 3.8054981689453125 0.158 3.8142481689453125 0.1465 Q 3.8229981689453125 0.13499999999999998 3.8357481689453126 0.12625 Q 3.8484981689453126 0.1175 3.8642481689453123 0.11249999999999999 Q 3.8799981689453125 0.10749999999999998 3.8969981689453124 0.10749999999999998 M 3.8924981689453126 0.1445 Q 3.8674981689453123 0.1445 3.8482481689453123 0.157 Q 3.8289981689453123 0.16949999999999998 3.8182481689453125 0.191 Q 3.8074981689453127 0.2125 3.8074981689453127 0.2405 Q 3.8074981689453127 0.268 3.8182481689453125 0.29 Q 3.8289981689453123 0.312 3.8482481689453123 0.3245 Q 3.8674981689453123 0.33699999999999997 3.8924981689453126 0.33699999999999997 Q 3.9174981689453126 0.33699999999999997 3.9364981689453127 0.3245 Q 3.9554981689453124 0.312 3.9664981689453125 0.29 Q 3.9774981689453126 0.268 3.9774981689453126 0.2405 Q 3.9774981689453126 0.2125 3.9664981689453125 0.191 Q 3.9554981689453124 0.16949999999999998 3.9364981689453127 0.157 Q 3.9174981689453126 0.1445 3.8924981689453126 0.1445 M 4.064002563476563 0.11299999999999999 L 4.181502563476562 0.11299999999999999 Q 4.189502563476562 0.11299999999999999 4.194752563476563 0.1185 Q 4.200002563476563 0.124 4.200002563476563 0.13149999999999998 Q 4.200002563476563 0.13949999999999999 4.194752563476563 0.14475 Q 4.189502563476562 0.15 4.181502563476562 0.15 L 4.064002563476563 0.15 Q 4.056502563476562 0.15 4.051002563476563 0.1445 Q 4.045502563476562 0.13899999999999998 4.045502563476562 0.13099999999999998 Q 4.045502563476562 0.1235 4.051002563476563 0.11824999999999997 Q 4.056502563476562 0.11299999999999999 4.064002563476563 0.11299999999999999 M 4.116502563476563 0.044999999999999984 Q 4.125002563476563 0.044999999999999984 4.130502563476562 0.05074999999999996 Q 4.136002563476563 0.056499999999999995 4.136002563476563 0.065 L 4.136002563476563 0.3065 Q 4.136002563476563 0.3185 4.1395025634765625 0.3245 Q 4.143002563476562 0.3305 4.148752563476562 0.33275 Q 4.154502563476562 0.33499999999999996 4.160002563476563 0.33499999999999996 Q 4.165002563476563 0.33499999999999996 4.168752563476563 0.33325 Q 4.172502563476563 0.3315 4.177502563476563 0.3315 Q 4.182502563476563 0.3315 4.1867525634765625 0.33625 Q 4.191002563476562 0.34099999999999997 4.191002563476562 0.3485 Q 4.191002563476562 0.3575 4.180502563476563 0.36375 Q 4.1700025634765625 0.37 4.157002563476563 0.37 Q 4.150002563476563 0.37 4.139752563476563 0.369 Q 4.129502563476563 0.368 4.119502563476562 0.3625 Q 4.109502563476562 0.357 4.102752563476563 0.34425 Q 4.096002563476563 0.3315 4.096002563476563 0.3085 L 4.096002563476563 0.065 Q 4.096002563476563 0.056499999999999995 4.102002563476563 0.05074999999999996 Q 4.108002563476562 0.044999999999999984 4.116502563476563 0.044999999999999984" fill="#a5497e" fill-rule="nonzero"></path></g><g transform="matrix(1,0,0,1,0,0)"><g clip-path="url(#SvgjsClipPath11685)"><g clip-path="url(#SvgjsClipPath116808496d85a-9c80-4a8a-a2a6-75a5d463626f)"><path d=" M 0.01876659372289957 -2.9763389448705593 C -0.2553598527644798 -2.986656301978291 -0.4807654462431248 -2.7676990566919786 -0.4807654462431248 -2.4958653562285393 C -0.4807654462431248 -2.7675557600654823 -0.7061710397217699 -2.986656301978291 -0.9802974862091494 -2.9763389448705593 C -1.2267676837827473 -2.967024664148301 -1.4286726305160027 -2.7682722431979636 -1.441712623527164 -2.521945342250862 C -1.4447218526835859 -2.4662029545438098 -1.438130207864757 -2.4124667196077056 -1.4235139519621367 -2.362169603707512 C -1.3484265196780871 -2.1023728198697604 -1.3030014890787671 -1.8348380182012094 -1.3030014890787671 -1.5642939873762367 L -1.3030014890787671 -1.0174740606664407 C -1.3030014890787671 -0.9408103654909317 -1.2408107531793824 -0.8786196295915469 -1.164147058003874 -0.8786196295915469 L -0.4807654462431248 -0.8786196295915469 L 0.2026161655176244 -0.8786196295915469 C 0.27927986069313304 -0.8786196295915469 0.34147059659251755 -0.9408103654909317 0.34147059659251755 -1.0174740606664407 L 0.34147059659251755 -1.5642939873762367 C 0.34147059659251755 -1.8348380182012092 0.3867523305653413 -2.10237281986976 0.46198305947588736 -2.362169603707512 C 0.47659931537850775 -2.4124667196077056 0.4830476635708396 -2.4662029545438098 0.48018173104091466 -2.521945342250862 C 0.4671417380297531 -2.7682722431979636 0.2650934946700012 -2.967024664148301 0.01876659372289957 -2.9763389448705593 Z" fill="#fcefdf" transform="matrix(1,0,0,1,0,0)" fill-rule="nonzero"></path></g><g clip-path="url(#SvgjsClipPath116808496d85a-9c80-4a8a-a2a6-75a5d463626f)"><path d=" M 0.2026161655176244 -0.8329080057392346 L -1.1641470580038737 -0.8329080057392346 C -1.265887662816231 -0.8329080057392346 -1.3487131129310796 -0.9157334558540833 -1.3487131129310796 -1.0174740606664407 L -1.3487131129310796 -1.5642939873762367 C -1.3487131129310796 -1.8129136343472787 -1.3886928717235412 -2.077152613606415 -1.4673627196699977 -2.3494162039493434 C -1.4836985350905734 -2.4060183714153727 -1.4904334765358984 -2.4647699882788467 -1.4872809507529803 -2.5243813849012984 C -1.4730945847298489 -2.7932058562083157 -1.2511281102871143 -3.011876508241636 -0.9818737491006082 -3.022050568722871 C -0.8372874529658638 -3.02749584052973 -0.7002958780354223 -2.975335868485085 -0.5962625271991246 -2.8753148231906827 C -0.5466818944314127 -2.8275970465674223 -0.5078485086509211 -2.7721412521133626 -0.4806221496166285 -2.711526779105437 C -0.4533957905823356 -2.772141252113363 -0.4144191081753481 -2.8277403431939185 -0.3649817720341326 -2.8753148231906827 C -0.26094842119783457 -2.9754791651115813 -0.12410014289388926 -3.02749584052973 0.020629449867351157 -3.0220505687228716 C 0.28974051442736104 -3.011876508241636 0.5117069888700954 -2.7932058562083157 0.5260366515197232 -2.5243813849012984 C 0.5291891773026414 -2.464913284905343 0.5224542358573163 -2.4060183714153727 0.506118420436741 -2.3495595005758396 C 0.4273052758637881 -2.077152613606415 0.3874688136978226 -1.8130569309737752 0.3874688136978226 -1.5644372840027327 L 0.3874688136978226 -1.0176173572929366 C 0.38718222044482986 -0.9157334558540833 0.30435677032998165 -0.8329080057392346 0.2026161655176244 -0.8329080057392346 Z M -0.961525628138137 -2.930913914271239 C -0.9672574931979881 -2.930913914271239 -0.972846061631343 -2.930770617644743 -0.978577926691194 -2.9306273210182465 C -1.2009742910134171 -2.922172820054966 -1.384393972928653 -2.741619070669656 -1.3961442963013475 -2.519509299600425 C -1.3987236355782806 -2.470215260085706 -1.3932783637714221 -2.4214944070769713 -1.3796651842542758 -2.3747797068391847 C -1.2985592936573824 -2.094204912159473 -1.2574331618529506 -1.8215114319370558 -1.2574331618529506 -1.564150690749741 L -1.2574331618529506 -1.017330764039945 C -1.2574331618529506 -0.9658872751277809 -1.2155905469160375 -0.9241879568173643 -1.1642903546303702 -0.9241879568173643 L 0.2026161655176244 -0.9241879568173643 C 0.25405965442978795 -0.9241879568173643 0.295758972740205 -0.9660305717542768 0.295758972740205 -1.017330764039945 L 0.295758972740205 -1.564150690749741 C 0.295758972740205 -1.8213681353105597 0.3368851045446366 -2.0940616155329765 0.41799099514152993 -2.3747797068391847 C 0.43146087803218003 -2.4214944070769713 0.4370494464655348 -2.470215260085706 0.4344701071886019 -2.519509299600425 C 0.42271978381590736 -2.741619070669656 0.23930010190067152 -2.922172820054966 0.01690373757844843 -2.9306273210182465 C -0.10289224217244008 -2.935069516439631 -0.21580998385150663 -2.8920805284907476 -0.3017879597492734 -2.809255078375899 C -0.3877659356470402 -2.7264296282610507 -0.43519711901730807 -2.6150881494734426 -0.43519711901730807 -2.495722059602043 L -0.5266203667219332 -2.495722059602043 C -0.5266203667219332 -2.6150881494734426 -0.5740515500922012 -2.7264296282610507 -0.6600295259899679 -2.809255078375899 C -0.7417086030928467 -2.888211519575348 -0.8481779965795812 -2.930913914271239 -0.961525628138137 -2.930913914271239 Z" fill="#ba7f30" transform="matrix(1,0,0,1,0,0)" fill-rule="nonzero"></path></g><g clip-path="url(#SvgjsClipPath116808496d85a-9c80-4a8a-a2a6-75a5d463626f)"><path d=" M 0.487203265739232 -2.6466134073026235 C 0.21680253154075557 -2.656787467783859 -0.005593832781467745 -2.440696155027472 -0.005593832781467745 -2.1725881668529365 C -0.005593832781467745 -2.4406961550274726 -0.22799019710369106 -2.6569307644103555 -0.4983909313021674 -2.6466134073026235 C -0.7415653064663509 -2.6374424232068616 -0.9408909139226732 -2.4412693415334576 -0.9536443136808419 -2.19823826299577 C -0.9565102462107675 -2.1433556550476958 -0.950061898018435 -2.0901926066175767 -0.9357322353688072 -2.0406119738498645 C -0.8616478794702315 -1.7842543090480232 -0.816939332003393 -1.5203019230418797 -0.816939332003393 -1.253340307879314 L -0.816939332003393 -0.7138285091208281 C -0.816939332003393 -0.6381678903307932 -0.755608375862986 -0.5768369341903856 -0.6799477570729514 -0.5768369341903856 L -0.005593832781467745 -0.5768369341903856 L 0.668760091510016 -0.5768369341903856 C 0.7444207103000504 -0.5768369341903856 0.8057516664404571 -0.6381678903307932 0.8057516664404571 -0.7138285091208281 L 0.8057516664404571 -1.253340307879314 C 0.8057516664404571 -1.5201586264153832 0.8504602139072961 -1.7841110124215271 0.9245445698058721 -2.0406119738498645 C 0.9388742324554997 -2.090335903244073 0.9453225806478314 -2.1433556550476958 0.9424566481179066 -2.19823826299577 C 0.9297032483597378 -2.4412693415334576 0.7303776409034157 -2.637299126580366 0.487203265739232 -2.6466134073026235 Z" fill="#d795ff" transform="matrix(1,0,0,1,0,0)" fill-rule="nonzero"></path></g><g clip-path="url(#SvgjsClipPath116808496d85a-9c80-4a8a-a2a6-75a5d463626f)"><path d=" M 0.6687600915100165 -0.5318417934705546 L -0.6798044604464546 -0.5318417934705546 C -0.7802553956203455 -0.5318417934705546 -0.8619344727232237 -0.6135208705734327 -0.8619344727232237 -0.7139718057473243 L -0.8619344727232237 -1.2534836045058104 C -0.8619344727232237 -1.4988074290674382 -0.9013410450097 -1.7594639926641678 -0.9790078165706827 -2.0281451673446886 C -0.9952003353647619 -2.083887555051741 -1.0017919801835908 -2.141922688782733 -0.9986394544006727 -2.2006743056462073 C -0.9847396816305338 -2.4659163612908173 -0.7656391397177252 -2.6815777841677155 -0.5001104908201224 -2.691608548022455 C -0.3572437542033333 -2.6969105232028174 -0.22225833204383938 -2.6456103309171497 -0.1196579474725048 -2.546735658634718 C -0.07079379783727391 -2.4997343651439388 -0.03239030193627146 -2.444995053822361 -0.0055938327814673006 -2.3850970639469167 C 0.021202636373336636 -2.444995053822361 0.059606132274339085 -2.4997343651439388 0.10847028190956998 -2.546735658634718 C 0.21107066648090456 -2.6454670342906534 0.34619938526689475 -2.6969105232028174 0.4889228252571878 -2.691608548022455 C 0.7544514741547903 -2.6815777841677155 0.9735520160675997 -2.4659163612908173 0.9874517888377381 -2.2006743056462073 C 0.9906043146206562 -2.141922688782733 0.9840126698018279 -2.0838875550517404 0.9678201510077484 -2.0281451673446886 C 0.8901533794467655 -1.7594639926641678 0.850746807160289 -1.4988074290674382 0.850746807160289 -1.2534836045058104 L 0.850746807160289 -0.7139718057473243 C 0.8507468071602886 -0.6135208705734341 0.7690677300574109 -0.5318417934705546 0.6687600915100165 -0.5318417934705546 Z M -0.47976236985765075 -2.6017615632092888 C -0.48535093829100573 -2.6017615632092888 -0.4909395067243606 -2.6016182665827925 -0.4966713717842116 -2.6014749699562962 C -0.7160585069500129 -2.5931637656195123 -0.8970421462148119 -2.4150460588846387 -0.9086491729610104 -2.1958022203453336 C -0.9112285122379435 -2.147081367336599 -0.9057832404310849 -2.099076997460346 -0.8924566541669312 -2.0530787803550408 C -0.8123538399555118 -1.776229697964232 -0.7718008946570653 -1.5071186334042221 -0.7718008946570653 -1.253340307879314 L -0.7718008946570653 -0.7138285091208281 C -0.7718008946570653 -0.6631015033411454 -0.7305314662261372 -0.6218320749102175 -0.6798044604464548 -0.6218320749102175 L 0.668760091510016 -0.6218320749102175 C 0.7194870972896978 -0.6218320749102175 0.7606132290941294 -0.6631015033411454 0.7606132290941294 -0.7138285091208281 L 0.7606132290941294 -1.253340307879314 C 0.7606132290941294 -1.5071186334042221 0.8011661743925764 -1.776229697964232 0.8812689886039957 -2.0530787803550408 C 0.8945955748681496 -2.0992202940868423 0.9000408466750078 -2.147224663963095 0.8974615073980747 -2.1958022203453336 C 0.8858544806518764 -2.4149027622581425 0.7050141380135735 -2.5931637656195123 0.48548370622127623 -2.6014749699562962 L 0.48548370622127623 -2.6014749699562962 C 0.36740728598834327 -2.6059171653776807 0.25577921394774283 -2.5635013639347823 0.1710909076884426 -2.481822286831904 C 0.0862593048026461 -2.400143209729026 0.03954460456485953 -2.2902346972063805 0.03954460456485953 -2.172588166852937 L -0.050588973501299206 -2.172588166852937 C -0.050588973501299206 -2.290377993832877 -0.09730367373908555 -2.400143209729026 -0.18213527662488227 -2.481822286831904 C -0.2629545739687824 -2.559632355019383 -0.3681342978170503 -2.6017615632092888 -0.47976236985765075 -2.6017615632092888 Z" fill="#ba7f30" transform="matrix(1,0,0,1,0,0)" fill-rule="nonzero"></path></g><g clip-path="url(#SvgjsClipPath116808496d85a-9c80-4a8a-a2a6-75a5d463626f)"><path d=" M 0.9871651955847456 -2.302271613832068 C 0.7167644613862694 -2.3124456743133037 0.4943680970640463 -2.0963543615569167 0.4943680970640463 -1.8282463733823808 C 0.4943680970640463 -2.0963543615569167 0.27197173274182274 -2.3125889709398 0.0015709985433469686 -2.302271613832068 C -0.24160337662083653 -2.2931006297363066 -0.4409289840771591 -2.096927548062902 -0.45368238383532766 -1.853896469525215 C -0.4565483163652533 -1.7990138615771403 -0.45009996817292075 -1.7458508131470214 -0.4357703055232929 -1.696270180379309 C -0.36168594962471734 -1.439912515577468 -0.3169774021578786 -1.1759601295713242 -0.3169774021578786 -0.9089985144087587 L -0.3169774021578786 -0.36948671565027214 C -0.3169774021578786 -0.2938260968602382 -0.25564644601747166 -0.23249514071983057 -0.17998582722743683 -0.23249514071983057 L 0.4943680970640463 -0.23249514071983057 L 1.1687220213555298 -0.23249514071983057 C 1.244382640145565 -0.23249514071983057 1.3057135962859714 -0.2938260968602382 1.3057135962859714 -0.36948671565027214 L 1.3057135962859714 -0.9089985144087587 C 1.3057135962859714 -1.1758168329448278 1.3504221437528108 -1.4397692189509717 1.4245064996513859 -1.696270180379309 C 1.4388361623010135 -1.7459941097735177 1.4452845104933465 -1.7990138615771403 1.4424185779634204 -1.853896469525215 C 1.4295218815787554 -2.0969275480629017 1.230339570748929 -2.2931006297363066 0.9871651955847456 -2.302271613832068 Z" fill="#ba7f30" transform="matrix(1,0,0,1,0,0)" fill-rule="nonzero"></path></g><g clip-path="url(#SvgjsClipPath116808496d85a-9c80-4a8a-a2a6-75a5d463626f)"><path d=" M 1.1685787247290336 -0.18749999999999867 L -0.1799858272274375 -0.18749999999999867 C -0.280436762401328 -0.18749999999999867 -0.36211583950420656 -0.26917907710287814 -0.36211583950420656 -0.36963001227676884 L -0.36211583950420656 -0.9091418110352549 C -0.36211583950420656 -1.1544656355968828 -0.40152241179068304 -1.415122199193612 -0.4791891833516657 -1.683803373874133 C -0.49538170214574484 -1.739545761581185 -0.5019733469645737 -1.7975808953121777 -0.4988208211816557 -1.8563325121756515 C -0.48477775178502047 -2.1215745678202618 -0.26582050649870803 -2.3372359906971596 -0.0002918576011050611 -2.3472667545518995 C 0.14243158238918774 -2.3527120263587578 0.27756030117517794 -2.301268537446594 0.38016068574651296 -2.2023938651641624 C 0.4290248353817434 -2.1553925716733833 0.46742833128274586 -2.100653260351805 0.49422480043755 -2.0407552704763607 C 0.5210212695923542 -2.100653260351805 0.5594247654933564 -2.1553925716733833 0.6082889151285877 -2.2023938651641624 C 0.7108892996999223 -2.301125240820098 0.8460180184859125 -2.3525687297322615 0.9887414584762058 -2.3472667545518995 C 1.2542701073738074 -2.3372359906971596 1.4733706492866172 -2.1215745678202618 1.4872704220567556 -1.8563325121756515 C 1.4904229478396738 -1.7975808953121777 1.483831303020845 -1.739545761581185 1.467638784226766 -1.683803373874133 C 1.389972012665783 -1.415122199193612 1.350565440379307 -1.1544656355968828 1.350565440379307 -0.9091418110352549 L 1.350565440379307 -0.36963001227676884 C 1.3507087370058024 -0.26917907710287814 1.2690296599029243 -0.18749999999999867 1.1685787247290336 -0.18749999999999867 Z M 0.020056263361366344 -2.257563066365229 C 0.014467694928011365 -2.257563066365229 0.008879126494656608 -2.257419769738733 0.0031472614348053707 -2.2572764731122366 C -0.21623987373099607 -2.2489652687754527 -0.39722351299579484 -2.0708475620405795 -0.40883053974199357 -1.8516037235012741 C -0.41140987901892645 -1.8028828704925395 -0.40596460721206795 -1.7548785006162868 -0.3926380209479141 -1.7088802835109818 C -0.3125352067364946 -1.4320312011201728 -0.27198226143804805 -1.1629201365601627 -0.27198226143804805 -0.9091418110352549 L -0.27198226143804805 -0.36963001227676884 C -0.27198226143804805 -0.3189030064970866 -0.2307128330071202 -0.2777768746926541 -0.17998582722743772 -0.2777768746926541 L 1.1685787247290327 -0.2777768746926541 C 1.2193057305087145 -0.2777768746926541 1.260431862313147 -0.31904630312358284 1.260431862313147 -0.3697733089032651 L 1.260431862313147 -0.9092851076617507 C 1.260431862313147 -1.1630634331866592 1.3009848076115935 -1.432174497746669 1.3810876218230128 -1.7090235801374778 C 1.394414208087167 -1.755165093869279 1.3998594798940254 -1.8031694637455322 1.3972801406170918 -1.8517470201277706 C 1.385673113870893 -2.0708475620405795 1.2048327712325906 -2.249108565401949 0.9853023394402929 -2.2574197697387333 C 0.8673692158338564 -2.2618619651601177 0.7555978471667595 -2.21944616371722 0.6709095409074595 -2.1377670866143412 C 0.5860779380216632 -2.056088009511463 0.5393632377838766 -1.9461794969888178 0.5393632377838766 -1.8285329666353736 L 0.44922965971771767 -1.8285329666353736 C 0.44922965971771767 -1.9463227936153142 0.40251495947993154 -2.056088009511463 0.3176833565941346 -2.1377670866143412 C 0.23686405925023446 -2.2152905615488274 0.13182763202846326 -2.257563066365229 0.020056263361366344 -2.257563066365229 Z" fill="#ba7f30" transform="matrix(1,0,0,1,0,0)" fill-rule="nonzero"></path></g></g></g></g><defs><clipPath id="SvgjsClipPath11685"><path d=" M -1.4880359808295454 -3.0224385733497026 h 2.9760719616590907 v 2.8349385733497026 h -2.9760719616590907 Z"></path></clipPath><clipPath id="SvgjsClipPath116808496d85a-9c80-4a8a-a2a6-75a5d463626f"><path d=" M -1.4880359808295454 -3.022438573349703 L 1.4880359808295454 -3.022438573349703 L 1.4880359808295454 -0.1875 L -1.4880359808295454 -0.1875 Z"></path></clipPath></defs></svg>